<svg width="1440" height="587" viewBox="0 0 1440 587" fill="none" xmlns="http://www.w3.org/2000/svg">
<path d="M501.084 151.697C502.891 152.201 504.151 152.514 505.376 152.9C510.548 154.527 515.726 156.143 520.871 157.822C538.998 163.74 557.517 168.647 576.779 171.64C586.37 173.129 595.962 174.612 605.55 176.111C606.79 176.306 608.155 176.344 609.063 177.41C608.409 177.505 607.92 177.611 607.424 177.644C596.34 178.394 585.252 179.117 574.17 179.886C566.549 180.415 559.025 180.173 551.632 178.429C536.576 174.877 522.873 169.254 510.703 161.338C508.105 159.648 505.809 157.644 503.524 155.676C502.416 154.723 501.185 153.719 501.084 151.697ZM981.519 326.935C981.092 326.841 980.552 326.82 980.151 326.62C971.436 322.272 963.031 317.598 955.804 311.704C952.377 308.908 949.373 305.861 947.095 302.38C943.359 296.668 942.282 290.677 944.469 284.452C945.324 282.015 946.673 279.684 947.899 277.339C948.263 276.642 948.971 276.059 949.672 275.25C953.408 277.019 956.398 279.143 959.103 281.517C969.811 290.917 977.223 301.781 981.466 314.009C982.59 317.247 983.202 320.574 982.857 323.96C982.748 325.018 982.801 326.134 981.519 326.935ZM317.2 447.593C315.103 449.021 313.355 448.971 311.714 448.96C305.653 448.921 299.569 449.022 293.536 448.633C282.288 447.91 271.127 446.566 259.997 445.052C233.582 441.462 207.466 436.812 181.701 430.943C172.149 428.767 162.666 426.397 153.496 423.309C152.53 422.982 151.465 422.782 150.929 421.798C151.556 421.764 151.896 421.695 152.216 421.738C175.975 424.853 199.741 427.94 223.488 431.114C248.407 434.443 273.145 438.482 297.649 443.41C303.992 444.685 310.289 446.109 317.2 447.593ZM966.099 483.6C964.497 483.675 963.703 483.784 962.924 483.737C959.563 483.533 956.202 483.305 952.847 483.048C934.477 481.642 916.55 478.545 899.055 473.893C877.956 468.283 858.199 460.556 840.357 449.87C831.557 444.599 823.495 438.697 816.403 431.973C815.991 431.583 814.989 431.182 815.913 430.241C816.924 430.784 817.896 431.3 818.858 431.825C830.843 438.378 843.435 444.093 856.456 449.224C875.073 456.561 894.308 462.722 913.815 468.353C929.822 472.973 945.895 477.447 961.945 481.971C963.171 482.316 964.419 482.585 966.099 483.6ZM1287.79 169.055C1286.83 170.281 1285.39 170.183 1284.12 170.338C1274.44 171.518 1264.72 172.094 1254.92 171.923C1243.28 171.721 1231.67 172.065 1220.16 173.619C1208.79 175.153 1197.8 177.673 1187.72 182.208C1179.75 185.798 1171.15 187.446 1162.2 188.055C1149.55 188.915 1136.95 188.546 1124.46 186.547C1117.01 185.354 1109.72 183.746 1102.93 180.934C1102.29 180.666 1101.8 180.158 1100.83 179.474C1163.04 170.778 1225.06 167.166 1287.79 169.055ZM325.729 296.774C333.596 296.404 370.411 297.436 374.458 298.091C374.67 298.401 375.027 298.728 375.128 299.098C380.873 320.38 386.6 341.666 392.317 362.954C392.348 363.067 392.265 363.224 392.172 363.324C392.105 363.397 391.933 363.41 391.808 363.449C388.417 360.915 339.923 312.38 327.271 298.839C326.799 298.333 326.454 297.753 325.729 296.774ZM669.173 116.179C667.205 116.179 665.699 116.253 664.208 116.167C651.706 115.451 640.105 112.568 629.631 106.975C623.866 103.896 618.605 100.328 613.804 96.3531C596.391 81.9334 579.034 67.4699 561.675 53.0081C561.046 52.4841 560.617 51.8078 559.934 51.0188C561.887 50.197 563.502 49.5173 565.073 48.857C571.82 51.4595 578.12 54.1739 583.498 58.2038C589.019 62.3389 594.825 66.2435 600.675 70.0859C616.897 80.7432 634.53 89.5575 654.146 95.7265C655.553 96.1698 656.932 96.6845 658.27 97.2447C661.279 98.5039 663.991 100.084 666.161 102.197C670.344 106.273 671.184 110.813 669.173 116.179ZM1098.71 26.1798C1103.75 26.4322 1108.79 26.6146 1113.82 26.9477C1127.1 27.8276 1140.39 28.5526 1153.73 28.3407C1162.69 28.1985 1171.6 28.6931 1180.45 29.8304C1195.51 31.7667 1209.3 36.112 1221.73 43.2769C1231.57 48.9504 1241.58 54.4297 1251.62 59.8845C1261.1 65.0365 1270.7 70.0371 1280.23 75.126C1281.02 75.5475 1282.12 75.7981 1282.23 76.7654C1281.87 77.7967 1280.92 77.9178 1279.85 77.6814C1275.79 76.7839 1271.75 75.8326 1267.69 74.9426C1257.56 72.7245 1247.92 69.598 1238.7 65.5622C1227.46 60.639 1216.49 55.3625 1205.78 49.7361C1197.11 45.1804 1187.78 41.8251 1177.65 39.9384C1169.06 38.3377 1160.35 37.8153 1151.53 37.9937C1143.1 38.1653 1134.69 37.9835 1126.28 37.1777C1115.49 36.1448 1106.57 32.2386 1098.71 26.1798ZM848.106 550.348C853.828 548.796 859.275 547.432 864.901 546.696C877.703 545.019 890.521 543.402 903.361 541.929C919.872 540.034 936.401 538.234 952.944 536.526C962.14 535.577 971.378 534.899 980.681 535.35C988.815 535.745 996.709 537.02 1004.29 539.432C1009.81 541.189 1014.91 543.521 1019.46 546.586C1021.07 547.669 1021.03 547.779 1019.39 550.061C1018.66 550.017 1017.81 550.052 1017.02 549.906C1012.26 549.024 1007.5 548.142 1002.77 547.18C994.738 545.547 986.599 544.519 978.311 544.325C963.613 543.981 949.507 546.282 935.781 550.363C931.208 551.722 926.569 552.964 921.886 554.06C907.455 557.435 892.637 559.289 877.778 560.934C873.216 561.438 868.674 561.007 864.246 560.063C858.204 558.775 853.143 556.227 849.328 552.221C848.855 551.722 848.588 551.098 848.106 550.348ZM1161.32 52.4117C1162.62 50.3719 1164.45 50.0507 1166.61 50.0893C1177.35 50.2811 1187.7 51.8582 1197.54 55.386C1204.66 57.9406 1211.2 61.2656 1217.13 65.2854C1224.58 70.3348 1231.83 75.5643 1239.14 80.7441C1239.54 81.0233 1239.64 81.565 1239.99 82.1874C1233.84 82.3901 1228.12 82.6829 1222.39 82.7249C1219.2 82.7485 1215.99 82.4793 1212.83 82.1185C1207.83 81.5473 1202.87 80.7424 1197.88 80.114C1170.41 76.6586 1143.09 72.5975 1116.05 67.3816C1098.95 64.0843 1081.6 62.2851 1063.94 62.7637C1060.92 62.8453 1057.86 62.7318 1054.85 62.4803C1043.79 61.5533 1032.74 60.5381 1021.7 59.5253C1020.94 59.4564 1020.23 59.1333 1019.01 58.7901C1019.79 58.129 1020.14 57.5595 1020.6 57.4964C1021.92 57.3147 1023.28 57.2946 1024.62 57.287C1030.86 57.2525 1037.1 57.2441 1043.34 57.2256C1052.62 57.1987 1061.86 56.8235 1071.08 55.8638C1085.14 54.3985 1099.23 53.6381 1113.43 54.7535C1131.15 56.1439 1147.84 60.0056 1163.13 67.3067C1170.78 70.9607 1179.01 73.1409 1187.63 74.581C1191.95 75.3035 1196.43 74.1015 1200.16 71.3451C1199.71 68.8166 1197.78 67.0072 1195.14 65.6951C1193 64.6327 1190.71 63.7579 1188.44 62.8882C1180.38 59.8096 1172.3 56.7731 1164.24 53.708C1163.35 53.3681 1162.51 52.9416 1161.32 52.4117ZM436.088 75.2236C435.923 77.1254 434.761 78.4797 433.867 79.881C428.663 88.041 424.105 96.412 420.598 105.137C418.949 109.239 417.429 113.381 417.077 117.696C416.595 123.597 416.291 129.508 415.998 135.418C415.692 141.597 415.484 147.778 415.244 153.96C415.196 155.169 415.075 156.385 415.185 157.586C415.524 161.271 417.403 164.367 421.309 166.442C423.536 167.625 425.921 168.701 428.404 169.481C439.266 172.891 449.291 177.609 459.549 181.963C459.933 182.126 460.123 182.577 460.514 183.021C459.746 183.762 459.01 184.473 458.332 185.128C456.501 184.591 455.239 184.256 454.008 183.856C443.408 180.4 432.787 176.98 422.229 173.44C418.824 172.298 415.462 171.001 412.299 169.484C401.203 164.165 396.351 156.326 397.908 146.026C397.97 145.626 398.059 145.228 398.099 144.827C398.4 141.883 398.977 138.936 398.925 135.996C398.823 130.084 398.383 124.175 398.053 118.266C398.032 117.889 397.761 117.521 397.518 116.94C396.128 116.762 394.675 116.575 393.116 116.376C390.577 119.081 388.153 121.651 385.747 124.232C383.231 126.929 380.732 129.636 378.226 132.338C375.82 134.932 373.413 137.526 371.006 140.12C368.599 142.713 366.189 145.304 363.782 147.899C361.275 150.6 358.834 153.342 356.25 155.996C353.805 158.505 351.849 161.345 348.671 163.547C345.458 159.892 345.361 156.127 346.765 152.212C351.176 139.914 359.158 129.325 370.7 120.444C376.675 115.848 383.362 112.014 390.376 108.495C394.934 106.208 399.46 103.84 403.706 101.207C411.678 96.2606 418.03 90.2422 421.717 82.6038C423.244 79.4394 425.847 76.8108 428.577 73.9938C431.138 74.4136 433.57 74.8114 436.088 75.2236ZM211.979 334.859C214.988 335.706 215.809 337.123 216.928 338.235C230.986 352.211 248.167 363.03 268.375 370.834C284.115 376.914 300.691 380.922 317.857 383.314C325.107 384.324 331.911 386.187 338.378 388.793C358.723 396.991 374.134 409.257 384.637 425.382C386.491 428.229 387.933 431.277 389.227 434.323C391.415 439.47 392.279 444.792 391.627 450.229C391.539 450.961 391.133 451.67 390.848 452.459C390.393 452.245 390.182 452.206 390.123 452.11C389.684 451.394 389.215 450.685 388.866 449.94C381.038 433.214 367.054 420.74 347.55 412.187C340.616 409.147 333.552 406.239 326.298 403.73C313.47 399.295 300.481 395.155 287.504 390.998C272.56 386.21 258.455 380.266 245.868 372.179C231.968 363.248 221.179 352.39 214.036 339.297C213.383 338.103 212.897 336.853 211.979 334.859ZM38.7054 171.626C44.6849 172.042 49.9285 172.759 55.0614 174.21C75.0035 179.845 95.475 183.62 116.583 185.141C132.079 186.257 147.563 186.309 163.051 185.163C166.763 184.889 170.44 184.89 174.144 185.346C176.633 185.653 179.176 185.79 181.698 185.809C194.009 185.897 206.32 185.922 218.631 185.966C234.52 186.023 250.307 185.106 265.914 182.646C280.627 180.329 295.346 178.031 310.02 175.565C326.777 172.748 343.779 172.177 360.805 171.717C362.628 171.668 362.787 171.895 363.079 174.265C361.668 174.554 360.231 174.92 358.76 175.139C324.964 180.157 291.183 185.244 257.354 190.121C245.086 191.89 232.727 193.292 220.368 194.609C207.839 195.944 195.275 197.094 182.696 198.086C173.643 198.8 164.549 199.327 155.459 199.58C133.679 200.185 112.433 197.635 91.7485 192.142C73.426 187.275 56.3056 180.36 39.6322 172.684C39.3855 172.569 39.2674 172.279 38.7054 171.626ZM382.682 398.413C381.501 397.491 380.284 396.598 379.143 395.647C365.865 384.566 352.589 373.486 339.335 362.389C332.94 357.035 326.535 351.687 320.245 346.256C314.408 341.216 308.953 335.916 304.101 330.239C298.565 323.763 293.97 316.918 291.242 309.339C290.301 306.722 288.759 304.315 286.529 302.267C283.881 299.836 281.175 297.426 278.251 295.212C274.463 292.344 270.508 289.61 266.497 286.942C255.102 279.369 243.636 271.864 232.222 264.31C231.394 263.761 230.058 263.49 230.103 262.039C231.953 262.445 233.704 262.788 235.426 263.214C249.639 266.728 263.316 271.208 275.928 277.598C287.294 283.357 297.145 290.411 304.827 299.282C317.779 314.238 332.141 328.3 347.126 341.977C351.557 346.021 355.804 350.216 359.775 354.553C368.577 364.162 375.572 374.552 380.024 385.964C381.57 389.932 382.819 393.954 382.682 398.413ZM1116.14 314.845C1116.06 315.074 1115.99 315.303 1115.92 315.532C1114.57 315.532 1113.23 315.566 1111.89 315.526C1103.8 315.28 1095.71 315.074 1087.63 314.747C1075.18 314.242 1062.74 313.573 1050.45 311.711C1037.31 309.721 1024.56 306.803 1012.5 302.112C1000.52 297.448 990.15 291.181 981.655 282.919C973.297 274.791 965.702 266.24 958.81 257.298C951.042 247.22 943.48 237.041 935.771 226.934C934.405 225.143 933.66 223.243 933.756 221.199C933.854 219.081 933.914 216.936 934.548 214.901C936.474 214.345 938.212 213.845 940.293 214.394C949.23 224.867 958.837 235.102 966.87 246.173C978.951 262.825 996.146 274.795 1018.36 282.216C1024.43 284.241 1030.46 286.306 1036.53 288.32C1061.57 296.633 1086.62 304.931 1111.67 313.242C1113.17 313.743 1114.65 314.309 1116.14 314.845ZM771.506 257.175C772.92 256.581 774.394 256.859 775.825 257.037C787.311 258.469 798.781 259.974 810.277 261.339C815.101 261.912 819.97 262.296 824.835 262.577C826.636 262.681 828.566 262.445 830.296 262.009C833.307 261.25 834.585 259.294 833.502 256.934C832.646 255.067 831.463 253.231 830.018 251.613C826.219 247.357 821.142 244.312 815.137 242.219C806.782 239.308 798.11 237.12 789.419 234.978C778.785 232.359 768.406 229.187 758.096 225.862C757.373 225.629 756.766 225.166 755.966 224.736C756.624 223.771 757.163 222.98 757.587 222.358C760.954 222.358 763.979 222.296 766.998 222.373C771.209 222.48 775.415 222.689 779.624 222.856C788.04 223.19 796.465 223.441 804.873 223.89C810.754 224.204 816.629 224.684 822.474 225.282C828.867 225.937 834.984 227.416 840.682 229.882C849.081 233.514 854.816 238.902 857.548 246.248C858.698 249.339 859.763 252.449 860.908 255.542C865.58 268.171 870.276 280.795 874.931 293.428C875.235 294.254 875.269 295.145 875.522 296.504C840.568 283.527 806.215 270.774 771.876 257.998C771.676 257.924 771.659 257.536 771.506 257.175ZM758.274 341.577C755.87 341.216 754.601 340.33 753.239 339.658C741.768 333.991 730.377 328.222 718.837 322.65C710.763 318.751 702.65 314.868 694.281 311.399C669.318 301.053 642.748 295.657 614.546 295.654C602.702 295.652 591.003 296.849 579.342 298.382C565.484 300.204 551.628 301.028 537.543 299.767C519.004 298.108 501.514 294.167 485.513 286.4C477.302 282.414 469.144 278.36 460.977 274.318C460.452 274.059 460.052 273.639 458.98 272.83C460.932 273.068 462.08 273.139 463.185 273.354C471.889 275.049 480.266 277.49 488.459 280.374C505.01 286.2 522.398 288.271 540.338 287.172C548.732 286.657 557.073 285.555 565.426 284.664C574.79 283.664 584.16 282.773 593.627 282.674C604.102 282.565 614.518 283.108 624.918 284.096C645.279 286.033 665.044 289.879 684.151 295.799C701.387 301.139 717.526 308.063 731.908 317.425C741.378 323.588 749.696 330.604 756.365 338.809C756.956 339.536 757.419 340.329 758.274 341.577ZM844.387 492.731C843.147 492.522 842.002 492.396 840.908 492.137C830.385 489.642 820.121 486.64 810.448 482.431C804.356 479.779 797.871 477.934 791.166 476.475C785.812 475.309 780.504 473.926 775.335 472.315C756.569 466.468 740.508 457.606 728.383 444.609C722.376 438.17 714.734 433.522 705.613 430.3C697.694 427.504 689.375 425.877 680.869 424.729C672.063 423.539 663.279 422.246 654.489 420.986C653.44 420.835 652.41 420.602 650.261 420.199C652.839 419.72 654.278 419.372 655.751 419.191C664.111 418.165 672.527 417.883 680.97 418.193C700.848 418.925 718.521 424.184 733.588 434.668C737.398 437.319 741.026 440.138 744.709 442.903C749.621 446.59 754.387 450.406 759.426 453.979C769.299 460.98 781.003 463.649 794.06 462.829C794.682 462.79 795.442 462.821 795.491 462.055C795.244 461.882 795.026 461.664 794.742 461.542C794.003 461.223 793.261 460.89 792.475 460.66C786.058 458.778 782.3 454.596 778.723 450.35C776.732 447.987 777.227 446.174 779.88 444.27C780.862 443.566 782.04 442.907 783.275 442.586C785.175 442.093 787.186 441.739 789.177 441.629C795.671 441.269 801.93 442.325 808.028 444.014C822.213 447.943 833.595 454.757 841.569 464.996C845.092 469.52 847.267 474.443 847.735 479.782C848.128 484.273 847.346 488.593 844.387 492.731ZM1107.49 430.406C1112.57 430.406 1117.1 430.372 1121.63 430.415C1128.05 430.474 1134.41 430.974 1140.73 431.895C1149.86 433.225 1159.07 434.079 1168.35 434.327C1184.63 434.762 1200.66 433.306 1216.42 430.05C1229.84 427.277 1243.34 426.658 1256.98 428.821C1266.98 430.405 1276.29 433.465 1285.37 437.1C1294.25 440.657 1303.2 444.108 1312.25 447.381C1322.22 450.989 1332.36 454.29 1342.38 457.823C1349.16 460.216 1355.84 462.771 1362.55 465.284C1362.95 465.431 1363.18 465.854 1363.65 466.314C1362.86 467.309 1362.09 468.283 1361.24 469.356C1358.03 468.987 1355.04 468.665 1352.05 468.299C1344.56 467.38 1337.06 466.45 1329.91 464.313C1322.34 462.049 1314.79 459.732 1307.26 457.401C1298.14 454.582 1288.95 451.942 1279.39 450.213C1272.09 448.892 1264.79 448.372 1257.34 449.507C1253.71 450.061 1249.99 450.268 1246.29 450.511C1224.65 451.934 1203.17 450.576 1181.83 447.726C1167.71 445.84 1153.69 443.487 1139.57 441.598C1128.34 440.095 1117.69 437.282 1107.3 433.68C1107.02 433.583 1106.82 433.344 1106.38 433.033C1106.73 432.214 1107.08 431.363 1107.49 430.406ZM1420.62 128.115C1418.48 126.085 1416.71 124.299 1414.8 122.614C1411.29 119.522 1407.83 116.387 1404.12 113.459C1399.33 109.685 1393.58 107.124 1386.9 106.259C1381.93 105.616 1376.87 105.135 1371.84 105.032C1362.57 104.844 1353.29 104.926 1344.01 105.011C1331.45 105.125 1319.14 103.904 1306.99 101.327C1286.57 96.9924 1265.8 95.8812 1244.78 97.4685C1235.55 98.1658 1226.34 99.0213 1217.11 99.7077C1206.81 100.473 1196.54 100.319 1186.43 98.3551C1175.14 96.1597 1163.81 94.0324 1152.59 91.6209C1123.29 85.3283 1094.05 78.8977 1064.79 72.5134C1063.51 72.2341 1062.26 71.8632 1060.72 71.462C1061.07 70.4535 1061.35 69.6216 1061.68 68.6635C1062.91 68.7526 1063.92 68.7417 1064.87 68.9057C1074.43 70.5409 1083.99 72.1938 1093.54 73.8609C1120.87 78.631 1148.11 83.7351 1175.68 87.5968C1190.18 89.6282 1204.76 90.7444 1219.48 89.8048C1229.23 89.1832 1238.95 88.2739 1248.7 87.6986C1266.4 86.6539 1284.08 86.9155 1301.73 88.5036C1309.11 89.1664 1316.48 89.8511 1323.87 90.3634C1337.98 91.3433 1352.12 92.0112 1366.15 93.664C1378.33 95.099 1390.47 96.7081 1402.33 99.3972C1407.18 100.498 1411.94 101.887 1416.68 103.279C1420.19 104.312 1423.32 105.918 1425.93 108.096C1430.45 111.882 1431.29 116.409 1428.33 121.091C1426.63 123.777 1424.17 125.937 1420.62 128.115ZM347.432 289.091C347.278 287.116 347.168 285.522 347.026 283.931C346.833 281.795 347.686 279.973 349.49 278.401C350.286 277.707 350.996 276.95 351.766 276.237C368.576 260.652 389.55 250.487 414.511 245.462C427.341 242.879 440.426 241.898 453.583 241.54C467.746 241.153 481.906 241.227 496.062 242.08C511.214 242.993 526.256 244.521 541.203 246.647C564.461 249.956 587.329 254.571 609.961 259.955C611.091 260.223 612.26 260.424 613.337 260.794C615.903 261.676 617.454 263.209 618.101 265.794C603.527 265.543 589.368 265.316 575.213 265.049C562.689 264.812 550.344 263.372 538.177 261.089C528.172 259.212 518.222 257.132 508.334 254.901C500.534 253.14 492.707 251.54 484.676 250.665C472.375 249.325 460.137 249.515 447.963 251.66C434.76 253.987 422.759 258.428 411.743 264.606C403.039 269.486 394.009 273.941 384.713 278.055C379.109 280.534 373.342 282.794 367.888 285.464C361.695 288.497 354.992 289.133 347.432 289.091ZM954.036 106.709C952.48 106.224 951.061 105.819 949.675 105.347C934.172 100.069 918.657 94.8147 903.182 89.4852C891.874 85.5907 880.367 82.1605 868.57 79.3099C863.102 77.9893 857.718 76.3591 852.48 74.5338C838.264 69.5812 825.876 62.4071 814.478 54.0949C809.996 50.8262 805.575 47.5037 801.12 44.2123C779.888 28.5224 757.242 14.3608 731.701 3.32333C731.022 3.02977 730.088 2.86659 730.108 1.76301C730.879 1.71675 731.657 1.62505 732.433 1.63178C740.36 1.69992 748.291 1.67806 756.212 1.89507C763.284 2.08854 770.369 2.21642 777.382 3.18374C788.646 4.73818 798.608 8.3088 806.864 14.7427C810.12 17.2805 813.503 19.7189 816.927 22.1128C827.054 29.1961 838.412 34.5542 851.18 38.124C865.623 42.1615 877.089 49.4416 885.859 59.4504C888.757 62.7561 891.684 66.0551 894.814 69.2203C902.675 77.1692 912.381 83.3322 923.88 87.6204C935.718 92.0347 946.172 98.1919 956.862 104.056C957.064 104.166 957.065 104.506 957.227 104.906C956.208 105.481 955.138 106.086 954.036 106.709ZM135.12 237.942C144.141 240.212 152.939 242.078 161.073 245.451C178.871 252.833 196.69 260.186 214.488 267.567C216.132 268.249 217.791 268.949 219.275 269.822C221.165 270.93 223.093 272.075 224.641 273.463C230.92 279.09 237.149 284.759 243.218 290.529C246.9 294.028 250.393 297.667 253.728 301.381C257.572 305.662 260.769 310.282 262.694 315.333C264.458 319.961 267.567 323.874 271.525 327.428C273.428 329.139 275.426 330.781 277.397 332.442C285.977 339.67 294.571 346.891 303.132 354.134C303.642 354.567 303.911 355.181 304.572 356.099C298.792 355.609 293.644 354.977 288.548 354.095C279.326 352.499 270.134 350.791 260.906 349.223C246.043 346.697 234.174 340.563 225.424 330.649C222.317 327.131 219.316 323.551 216.344 319.961C212.999 315.92 209.79 311.807 206.42 307.78C205.021 306.108 203.398 304.549 201.803 302.987C200.441 301.653 198.703 301.064 196.458 301.217C194.452 301.354 192.403 301.315 190.397 301.16C184.003 300.668 180.617 298.262 179.222 293.306C178.816 291.863 178.576 290.391 178.204 288.942C176.949 284.062 175.384 279.252 173.06 274.616C169.728 267.976 164.666 262.346 157.482 258.034C154.795 256.421 151.929 254.975 149.013 253.64C145.763 252.152 142.791 250.413 140.21 248.262C137.53 246.026 134.908 243.745 132.301 241.453C132.009 241.196 131.988 240.742 131.807 240.296C132.842 239.561 133.83 238.858 135.12 237.942ZM992.522 486.869C990.602 485.531 989.319 484.696 988.119 483.79C981.732 478.972 975.929 473.739 970.585 468.171C958.529 455.61 943.272 446.33 925.109 440.048C909.333 434.592 892.768 431.675 875.718 430.367C868.498 429.813 861.286 429.345 854.353 427.416C849.169 425.974 844.674 423.843 840.741 420.708C821.162 405.098 802.859 388.549 784.247 372.225C781.598 369.903 780.85 367.427 781.592 364.272C783.15 363.868 784.697 363.465 786.233 363.065C787.581 364.051 788.727 364.833 789.794 365.679C796.614 371.083 803.412 376.505 810.227 381.913C822.796 391.886 837.802 398.127 855.255 400.638C862.219 401.64 869.207 402.572 876.122 403.764C894.666 406.961 912.458 411.877 929.264 418.966C949.202 427.377 966.407 438.449 980.625 452.443C984.688 456.441 988.136 460.722 990.394 465.57C993.505 472.252 994.455 479.082 992.522 486.869ZM910.748 339.097C909.985 339.474 909.72 339.712 909.427 339.735C903.37 340.23 897.321 340.307 891.28 339.529C882.653 338.419 874.784 335.729 867.388 332.135C859.326 328.218 851.351 324.186 843.372 320.163C833.824 315.348 824.372 310.41 814.771 305.667C799.39 298.069 783.2 291.774 766.16 286.894C747.419 281.526 728.24 277.341 708.855 273.789C692.385 270.771 676.273 266.937 660.748 261.607C646.042 256.559 631.378 251.431 616.696 246.339C616.388 246.231 615.981 246.191 615.788 246.006C615.309 245.547 614.928 245.023 614.362 244.351C615.609 243.901 616.474 243.411 617.415 243.283C620.399 242.879 623.402 242.456 626.415 242.324C632.374 242.062 638.161 243.056 643.865 244.304C649.063 245.441 654.209 246.73 659.395 247.906C687.917 254.381 716.463 260.792 744.962 267.328C758.239 270.373 771.555 273.365 784.216 277.869C798.377 282.906 812.621 287.808 826.317 293.629C836.199 297.83 846.523 301.016 857.512 302.797C859.163 303.065 860.799 303.396 862.427 303.743C868.958 305.132 875.309 306.902 881.298 309.44C896.471 315.868 905.534 326.135 910.748 339.097ZM482.877 88.1133C492.876 95.7492 494.132 105.35 488.803 113.568C488.105 114.643 487.387 115.71 486.718 116.796C484.865 119.815 482.952 122.813 481.211 125.873C478.976 129.801 477.217 133.874 476.222 138.123C473.424 150.076 477.31 160.28 489.138 168.188C492.605 170.506 496.476 172.482 500.362 174.349C505.427 176.782 510.924 178.53 516.497 180.102C531.335 184.284 546.683 186.814 562.143 188.916C574.438 190.587 586.777 192.056 599.105 193.574C610.599 194.989 622.101 196.365 633.607 197.73C649.945 199.669 666.298 201.53 682.625 203.533C689.622 204.391 696.62 205.413 703.186 207.626C711.098 210.292 718.917 213.136 726.762 215.928C726.993 216.01 727.07 216.369 727.336 216.781C726.716 217.405 726.031 218.095 725.404 218.726C724.597 218.593 724.098 218.542 723.624 218.427C696.052 211.722 667.755 208.329 639.067 206.932C618.184 205.915 597.271 205.66 576.352 206.392C570.119 206.61 563.876 206.721 557.636 206.727C546.607 206.74 535.796 205.404 525.209 202.971C501.753 197.579 481.489 187.629 463.2 174.983C459.925 172.719 457.149 169.919 454.548 167.126C450.948 163.262 449.106 158.798 448.963 153.949C448.856 150.287 449.581 146.717 450.941 143.218C453.051 137.797 456.24 132.763 459.469 127.729C463.384 121.626 467.221 115.487 470.854 109.274C474.344 103.304 477.517 97.217 480.859 91.1911C481.387 90.2389 482.068 89.3406 482.877 88.1133ZM736.911 36.1625C740.5 34.4903 740.508 34.481 743.376 35.8033C746.295 37.15 749.197 38.5219 752.111 39.8761C757.515 42.3878 762.615 45.2208 767.372 48.4819C776.463 54.7164 786.099 60.3892 796.065 65.7035C823.349 80.2528 852.322 92.3215 882.412 102.673C909.634 112.037 938.14 117.062 967.796 117.938C971.473 118.046 975.194 118.533 978.772 119.24C991.384 121.731 1003.66 125.091 1015.81 128.753C1024.8 131.466 1033.89 133.887 1043.24 135.736C1048.28 136.733 1053.21 138.246 1058 139.868C1063.62 141.77 1068.66 144.486 1073.03 147.934C1077.82 151.712 1081.18 156.143 1082.61 161.434C1082.73 161.893 1082.62 162.392 1082.62 163.294C1080.91 162.433 1079.63 161.829 1078.41 161.164C1071.7 157.525 1064.62 154.406 1057.25 151.71C1047.26 148.058 1036.9 145.249 1026.32 142.916C1008.91 139.072 991.153 136.54 973.376 134.108C949.106 130.787 925 126.855 901.21 121.78C871.364 115.413 842.235 107.452 814.13 97.0875C796.525 90.5947 781.132 81.9679 768.637 70.1254C759.513 61.4793 750.449 52.7928 741.423 44.081C739.033 41.7738 737.833 38.9854 736.911 36.1625ZM236.174 490.8C236.99 490.856 237.343 490.833 237.657 490.91C252.56 494.567 266.619 499.601 279.506 506.709C286.429 510.528 293.681 513.967 300.82 517.531C305.819 520.028 311.014 522.287 315.873 524.941C321.007 527.745 325.975 530.768 330.774 533.928C335.212 536.85 338.958 540.356 341.835 544.35C346.198 550.408 350.449 556.52 354.614 562.666C357.679 567.19 359.585 572.012 360.557 577.14C363.177 590.972 370.846 602.619 384.74 611.425C388.214 613.628 390.991 616.315 393.389 619.261C395.317 621.627 397.169 624.035 398.994 626.452C399.365 626.942 399.465 627.563 399.792 628.38C395.616 628.449 391.99 627.779 388.44 627.05C376.373 624.575 364.337 622.002 352.321 619.37C347.115 618.23 342.144 616.563 337.339 614.578C328.393 610.886 321.404 605.678 316.947 598.367C313.337 592.446 309.564 586.588 305.775 580.738C303.378 577.04 300.988 573.42 300.073 569.193C299.18 565.07 296.562 563.572 291.26 563.363C288.921 563.269 286.55 563.485 284.21 563.687C282.386 563.847 280.82 563.478 279.598 562.467C278.564 561.61 277.439 560.68 276.9 559.609C274.888 555.611 273.202 551.534 273.364 547.119C273.442 544.971 273.39 542.814 273.23 540.668C272.331 528.572 266.124 518.692 253.863 511.369C252.919 510.805 252.007 510.191 250.993 509.72C242.654 505.845 238.026 499.384 232.462 493.192C233.934 492.244 235.189 491.435 236.174 490.8ZM856.127 342.534C862.323 344.326 867.551 346.121 872.829 347.813C878.144 349.518 883.459 351.223 888.774 352.929C893.931 354.586 899.091 356.238 904.245 357.902C909.555 359.616 914.859 361.344 920.168 363.059C925.478 364.774 930.764 366.539 936.112 368.175C941.392 369.791 946.475 371.855 952.797 373.217C951.556 371.933 950.893 371.197 950.167 370.503C944.329 364.922 941.246 358.493 941.251 351.233C941.253 347.616 941.6 343.983 942.13 340.389C942.484 337.986 942.126 335.822 940.427 333.856C939.091 332.31 937.69 330.785 936.14 329.375C931.361 325.021 926.417 320.8 920.69 317.2C915.468 313.918 911.366 309.93 908.1 305.25C899.647 293.137 891.912 280.753 885.059 268.021C883.534 265.187 882.314 262.24 881.151 259.296C879.771 255.807 879.375 252.201 879.488 248.536C879.564 246.113 880.62 244.095 882.601 242.325C885.809 239.456 889.715 237.396 894.203 236.046C896.45 235.37 898.758 235.189 901.151 235.648C910.924 237.524 918.459 241.514 921.866 249.451C922.357 250.594 922.763 251.761 923.179 252.923C924.211 255.799 924.291 258.755 924.374 261.719C924.626 270.729 925.04 279.728 927.157 288.621C929.748 299.498 934.842 309.518 943.464 318.24C946.895 321.711 950.955 324.784 954.669 328.082C956.573 329.774 958.696 331.4 960.108 333.341C963.858 338.493 965.216 344.11 964.071 350.045C963.789 351.505 963.31 352.941 962.993 354.396C961.429 361.574 962.747 368.312 967.823 374.48C970.62 377.88 973.956 380.912 977.842 383.518C985.88 388.91 992.727 395.212 999.684 401.434C999.867 401.598 999.827 401.921 999.896 402.186C999.239 403.138 998.195 403.471 996.952 403.103C995.694 402.731 994.509 402.202 993.295 401.738C985.85 398.893 978.521 395.836 970.943 393.24C946.482 384.86 921.936 376.635 897.408 368.379C888.376 365.339 879.657 361.847 871.631 357.326C867.485 354.991 863.602 352.413 860.376 349.261C858.57 347.496 856.917 345.651 856.127 342.534ZM838.971 210.112C838.884 210.342 838.798 210.571 838.71 210.8C837.372 210.8 836.032 210.832 834.695 210.795C826.438 210.567 818.184 210.275 809.925 210.095C794.402 209.756 778.976 208.627 763.601 206.886C742.698 204.519 722.149 200.993 702.134 195.558C685.859 191.138 669.475 187.004 652.54 184.452C637.398 182.17 622.967 178.329 608.944 173.125C586.11 164.649 562.279 158.402 537.439 154.749C530.297 153.699 523.337 152.093 516.831 149.418C512.906 147.803 509.276 145.869 506.246 143.282C501.647 139.355 499.434 134.733 499.733 129.323C500.015 124.189 502.416 119.656 505.665 115.344C506.157 114.691 506.873 114.145 507.616 113.423C509.111 114.393 510.416 115.228 511.704 116.079C517.028 119.595 522.317 123.148 527.677 126.629C536.944 132.649 547.369 136.919 558.776 139.742C569.087 142.294 579.554 144.361 590.105 146.13C599.713 147.742 609.091 149.858 617.915 153.328C633.65 159.516 649.984 164.604 666.081 170.126C683.133 175.976 700.537 181.043 718.57 184.623C731.648 187.22 744.737 189.799 757.891 192.137C784.056 196.786 810.081 201.811 835.356 209.04C836.566 209.386 837.766 209.754 838.971 210.112ZM1056.95 520.412C1055.28 519.723 1054.51 519.468 1053.83 519.114C1039.51 511.716 1029.04 501.838 1023.2 488.951C1020.37 482.728 1018.79 476.281 1017.19 469.811C1012.53 450.93 1001.19 435.425 980.679 424.662C974.181 421.251 967.318 418.393 960.218 415.88C950.343 412.382 940.118 409.653 929.849 407.012C900.732 399.527 872.614 390.193 846.03 378.04C819.969 366.127 796.237 351.832 775.689 334.279C763.791 324.118 753.311 313.099 744.295 301.2C743.468 300.109 742.305 299.099 742.2 297.649C748.154 298.462 758.554 301.43 762.642 303.455C763.071 303.668 763.516 303.869 763.909 304.119C772.99 309.918 782.159 315.633 791.102 321.564C795.904 324.748 800.07 328.486 803.597 332.631C817.471 348.932 835.343 361.834 856.315 372.095C874.235 380.864 893.49 387.24 913.411 392.472C928.293 396.382 943.15 400.374 957.866 404.661C971.951 408.764 985.863 413.249 999.807 417.651C1008.16 420.289 1015.98 423.706 1022.82 428.43C1033.52 435.831 1039.5 445.153 1040.72 456.426C1041.04 459.374 1041.33 462.334 1041.93 465.248C1045.22 481.173 1049.42 496.948 1054.46 512.579C1055.21 514.897 1055.94 517.221 1056.95 520.412ZM580.781 16.8162C588.037 17.1686 594.766 16.5596 601.44 17.5505C603.419 17.844 605.428 18.1695 607.302 18.7339C634.733 26.999 662.083 35.4265 688.738 45.2123C698.235 48.6989 707.61 52.3764 716.577 56.6814C724.684 60.5734 732.472 64.8278 739.279 70.1111C750.578 78.8817 763.144 86.3124 776.636 92.7758C791.995 100.132 808.152 106.187 824.787 111.441C843.742 117.428 862.745 123.321 881.727 129.255C893.339 132.886 904.912 136.587 915.987 141.198C916.517 141.418 917.32 141.527 916.648 142.482C915.129 142.238 913.504 142 911.894 141.71C906.633 140.768 901.371 139.833 896.123 138.849C869.06 133.781 842 128.705 814.945 123.615C809.36 122.564 803.897 121.188 798.633 119.35C794.425 117.88 790.656 115.931 787.51 113.184C783.631 109.797 779.223 106.839 774.426 104.322C768.939 101.443 763.401 98.5931 757.641 96.0865C749.211 92.4191 740.516 89.1412 732.024 85.5613C723.832 82.1075 715.651 78.6218 707.66 74.8863C700.367 71.4763 693.664 67.3622 687.926 62.3709C685.456 60.2218 682.507 58.7994 679.245 57.637C673.092 55.4441 666.951 53.2302 660.831 50.9784C650.579 47.205 640.401 43.2996 630.088 39.6364C624.556 37.6715 618.812 36.0835 613.147 34.3591C612.424 34.1396 611.599 34.1294 610.198 33.9368C611.365 35.5165 612.167 36.6739 613.049 37.7901C624.817 52.6447 640.796 63.6427 660.779 70.9851C664.145 72.2215 667.559 73.4084 670.766 74.8762C673.226 76.0033 675.559 77.3929 677.651 78.9238C680.649 81.1158 682.017 84.0026 681.93 87.252C681.911 87.9737 681.391 88.6861 681.031 89.5761C677.168 88.2462 673.584 87.0854 670.083 85.7816C667.646 84.874 665.268 83.8412 662.956 82.7418C649.198 76.2069 635.561 69.5172 621.427 63.4888C612.624 59.7347 604.66 54.9604 597.61 49.276C591.506 44.3544 586.539 38.8104 582.959 32.4783C581.477 29.8564 580.601 27.1538 580.579 24.2948C580.56 22.0169 580.696 19.7391 580.781 16.8162ZM764.779 434.709C763.281 433.979 762.697 433.741 762.176 433.434C757.295 430.558 752.48 427.606 747.536 424.802C741.22 421.219 734.993 417.504 728.395 414.28C698.4 399.627 665.456 391.903 630.798 388.43C616.753 387.022 602.693 385.746 588.786 383.577C561.379 379.306 534.889 372.772 509.613 363.238C498.477 359.039 487.587 354.459 477.434 348.876C472.725 346.285 468.251 343.408 463.842 340.499C462.476 339.598 461.449 338.242 460.674 336.94C459.968 335.754 459.698 334.373 459.444 333.053C459.179 331.671 458.223 330.288 458.977 328.735C464.123 328.566 468.332 329.529 472.063 332.359C478.818 337.484 486.606 341.503 494.904 344.894C508.522 350.46 523.042 353.804 537.992 356.132C550.922 358.147 564.042 358.884 577.103 360.045C592.343 361.401 607.597 362.714 622.773 364.442C641.453 366.57 660.078 369.015 678.691 371.498C691.877 373.258 704.611 376.283 716.601 381.119C733.217 387.819 745.954 397.656 754.527 410.879C758.808 417.483 761.83 424.454 764.141 431.635C764.385 432.391 764.468 433.18 764.779 434.709ZM162.043 212.562C163.19 212.424 164.167 212.255 165.153 212.193C181.293 211.19 197.434 210.195 213.575 209.208C225.857 208.456 238.075 207.267 250.215 205.629C272.004 202.687 293.525 198.754 314.831 194.097C337.001 189.25 359.406 185.632 382.428 184.567C400.035 183.752 417.499 184.507 434.849 186.852C456.776 189.816 477.664 195.396 497.47 203.467C516.11 211.064 535.703 216.157 556.484 218.324C569.747 219.707 583.037 220.118 596.357 219.139C605.254 218.487 614.117 217.553 623.014 216.898C639.284 215.698 655.381 216.63 671.142 220.126C676.972 221.419 682.693 223.094 688.33 224.868C707.617 230.935 726.853 237.11 746.083 243.292C747.353 243.7 749.008 243.814 749.913 245.155C749.127 245.284 748.668 245.417 748.204 245.428C735.376 245.708 722.561 245.5 709.793 244.43C690.618 242.823 671.858 239.627 653.487 234.944C649.642 233.964 645.726 233.034 641.753 232.521C626.613 230.567 611.451 228.712 596.268 226.976C583.587 225.526 570.861 224.323 558.164 222.961C541.875 221.214 526.113 217.854 510.905 212.878C501.081 209.662 491.335 206.293 481.477 203.143C460.588 196.468 439.204 191.25 416.681 189.462C400.097 188.146 383.684 188.819 367.429 191.84C350.032 195.073 333.852 200.683 318.403 207.717C313.718 209.85 309.167 212.17 304.555 214.405C288.895 221.999 272.026 225.94 253.576 225.477C233.683 224.979 213.782 224.698 193.885 224.278C188.828 224.171 183.773 223.942 178.723 223.688C174.985 223.501 171.363 222.829 168.119 221.278C164.095 219.355 161.843 216.594 162.043 212.562ZM1152.18 389.07C1150.38 389.27 1149.4 389.329 1148.44 389.496C1145.15 390.069 1141.88 390.723 1138.58 391.27C1124.84 393.549 1111.03 395.22 1096.93 394.844C1084.32 394.507 1072.15 392.523 1060.68 388.289C1047.48 383.422 1034.93 377.646 1023.3 370.651C1013.29 364.626 1004.23 357.81 996.629 349.821C996.198 349.369 995.357 348.977 995.921 347.964C997.242 348.644 998.506 349.254 999.716 349.926C1005.66 353.235 1011.59 356.567 1017.54 359.881C1023.06 362.965 1028.55 366.105 1034.15 369.099C1050.19 377.673 1067.83 381.817 1087.18 381.306C1095.66 381.083 1103.93 379.942 1112.14 378.337C1130.32 374.783 1148.54 371.443 1167.29 370.291C1182.17 369.377 1196.97 369.714 1211.66 371.701C1240.3 375.577 1265.52 385.214 1287.22 400.668C1293.64 405.237 1300.18 409.702 1306.73 414.145C1319.72 422.945 1332.76 431.692 1345.76 440.475C1346.81 441.183 1348.11 441.744 1349.05 443.422C1347.45 442.865 1346.55 442.59 1345.69 442.243C1325.53 434.093 1305.5 425.818 1286.78 415.598C1267.86 405.272 1246.59 400.597 1223.71 400.794C1211.18 400.902 1198.86 402.438 1186.75 405.026C1170.47 408.506 1154.06 411.549 1137.45 413.918C1126.48 415.483 1115.66 415.385 1104.82 413.477C1103.34 413.216 1101.82 413.032 1100.83 411.97C1100.93 408.526 1101.77 406.943 1105.08 405.73C1107.65 404.79 1110.46 404.137 1113.25 403.75C1118.22 403.058 1123.27 402.7 1128.28 402.134C1133.13 401.585 1137.92 400.784 1142.31 398.945C1147.15 396.922 1150.53 393.947 1152.18 389.07ZM733.53 468.387C734.237 468.655 734.993 468.862 735.644 469.2C740.16 471.553 744.689 473.892 749.149 476.314C757.93 481.082 766.611 485.968 775.435 490.684C794.293 500.763 815.058 503.766 837.266 500.882C843.411 500.083 849.513 498.998 855.557 497.794C875.57 493.805 895.8 491.096 916.467 490.651C931.014 490.338 945.449 490.971 959.73 493.341C979.191 496.569 996.937 502.759 1012.55 512.668C1015.85 514.761 1019.24 516.771 1022.43 518.967C1042.08 532.512 1061.69 546.098 1081.3 559.68C1081.76 560.002 1082.11 560.435 1083.14 561.418C1081.51 561.003 1080.73 560.878 1080.03 560.616C1061.7 553.746 1043.72 546.388 1027.07 537.097C1024.73 535.787 1022.29 534.571 1019.83 533.4C1002.32 525.047 983.311 521.034 962.95 521.178C950.755 521.264 938.781 522.774 927.01 525.325C921.158 526.593 915.343 528.029 909.411 528.992C891.902 531.837 874.269 534.124 856.559 536.036C852.399 536.486 848.514 536.079 844.795 534.537C843.45 533.979 842.047 533.509 840.698 532.959C839.88 532.626 838.753 532.532 838.649 531.548C844.455 526.368 851.577 523.467 860.315 523.128C863.171 523.017 866.022 522.685 868.856 522.35C872.695 521.896 876.496 521.285 880.051 519.965C884.892 518.167 888.237 515.301 889.811 511.198C890.039 510.605 890.523 509.927 889.383 509.217C886.967 509.702 884.369 510.22 881.773 510.745C866.678 513.798 851.425 515.767 835.769 515.346C821.917 514.973 808.746 512.472 796.264 507.693C787.134 504.198 778.322 500.24 769.885 495.765C760.165 490.61 751.103 484.81 742.944 478.136C739.416 475.251 736.065 472.242 733.53 468.387ZM560.847 236.372C559.372 236.372 558.701 236.425 558.044 236.363C550.511 235.667 542.974 234.989 535.449 234.235C522.224 232.911 509.137 230.98 496.267 228.207C488.12 226.452 479.932 224.905 471.546 224.099C458.911 222.885 446.323 222.981 433.794 224.952C416.425 227.684 400.891 233.626 386.893 242.151C381.106 245.677 375.064 248.817 368.585 251.452C365.283 252.795 362.076 254.29 358.771 255.63C350.358 259.039 341.937 262.441 333.46 265.746C331.684 266.439 329.674 266.991 327.725 267.108C324.042 267.328 320.4 266.769 316.778 266.069C316.778 265.114 316.766 264.316 316.78 263.52C316.842 259.829 318.834 257.074 323.013 255.394C325.871 254.245 328.757 253.138 331.592 251.952C334.724 250.644 337.919 249.401 340.875 247.87C342.82 246.863 344.648 245.559 346.079 244.106C349.329 240.807 348.963 236.945 345.291 233.467C344.074 234.137 342.861 234.845 341.6 235.493C337.491 237.602 333.467 239.836 329.224 241.759C311.719 249.694 292.91 253.73 272.718 253.78C257.932 253.817 243.521 251.956 229.259 249.055C213.396 245.828 198.01 241.428 182.603 237.078C178.949 236.046 175.285 235.039 171.654 233.96C169.913 233.443 169.874 232.971 171.306 231.089C173.179 231.445 175.132 231.802 177.076 232.191C191.782 235.14 206.472 238.142 221.195 241.033C230.851 242.928 240.532 244.671 250.556 244.962C267.581 245.458 283.274 242.303 297.594 234.823C304.644 231.142 311.835 227.626 319.055 224.158C332.236 217.831 346.05 212.555 360.678 208.694C387.357 201.653 414.472 200.101 441.94 205.086C452.769 207.052 463.473 209.52 474.11 212.085C502.347 218.895 529.839 227.448 557.734 235.067C558.594 235.303 559.365 235.744 560.847 236.372ZM683.807 99.1449C685.055 99.4065 685.848 99.5159 686.589 99.7371C695.585 102.425 704.65 104.98 713.551 107.857C737.453 115.583 761.266 123.483 785.148 131.247C808.561 138.86 831.983 146.457 856.108 152.568C874.097 157.125 892.108 161.634 910.026 166.363C926.038 170.588 941.795 175.359 956.858 181.483C968.334 186.148 979.002 191.73 988.617 198.609C995.396 203.459 1002.35 208.155 1009.33 212.823C1029.02 225.991 1049.71 238.009 1072.32 247.844C1075.12 249.063 1077.71 250.607 1080.36 252.039C1081 252.384 1081.5 252.886 1081.98 253.247C1081.3 254.758 1080.31 255.101 1078.7 254.709C1071.45 252.941 1064.17 251.24 1056.91 249.484C1038.04 244.916 1019.23 240.192 1000.95 234.225C981.508 227.875 963.187 219.991 946.608 209.583C935.999 202.923 924.703 197.019 913.182 191.404C881.534 175.982 847.946 163.882 812.92 154.272C799.853 150.687 786.648 147.417 773.609 143.768C756.714 139.04 740.402 133.244 724.943 125.988C711.063 119.473 698.298 111.808 687.067 102.57C685.951 101.652 684.56 100.868 683.807 99.1449ZM443.175 273.085C450.545 279.154 458.221 284.466 464.374 290.907C474.833 301.853 488.622 308.566 505.218 311.871C517.597 314.336 530.179 314.867 542.867 314.583C569.363 313.99 595.797 314.529 622.127 317.238C638.875 318.961 655.394 321.524 671.545 325.482C691.845 330.456 710.777 337.612 727.853 347.814C754.471 363.718 775.227 383.634 791.605 406.587C791.963 407.088 792.737 407.624 791.844 408.324C782.929 401.749 774.076 395.131 765.092 388.627C759.601 384.651 754.006 380.757 748.289 376.989C735.148 368.328 720.366 362.022 704.244 357.63C685.826 352.611 666.842 349.575 647.666 347.256C634.505 345.664 621.297 344.305 608.085 342.99C594.539 341.641 580.956 340.522 567.403 339.209C556.865 338.188 546.302 337.258 535.836 335.871C520.302 333.811 505.36 330.087 491.181 324.552C470.26 316.383 453.252 304.649 440.485 289.064C439.097 287.369 437.798 285.65 437.246 283.635C436.456 280.751 436.004 277.846 436.04 274.653C438.38 274.139 440.611 273.649 443.175 273.085ZM428.833 594.37C422.963 590.01 417.156 585.911 411.653 581.567C399.428 571.916 387.354 562.142 375.22 552.417C356.304 537.257 337.302 522.17 317.56 507.685C309.57 501.823 300.833 496.831 291.398 492.584C283.017 488.812 274.353 485.507 265.356 482.788C250.231 478.213 235.134 473.572 219.91 469.214C186.605 459.682 153.237 450.294 119.875 440.885C113.162 438.992 106.919 436.362 100.792 433.525C100.562 433.419 100.506 433.075 100.359 432.826C100.622 431.687 101.622 431.308 102.924 431.412C107.275 431.76 111.747 431.75 115.947 432.59C152.881 439.978 189.777 447.484 226.347 455.971C243.664 459.989 261.072 463.753 279.039 465.501C289.938 466.562 300.849 467.02 311.839 466.285C317.199 465.929 322.633 465.872 328.005 466.101C338.773 466.56 348.895 468.934 358.173 473.426C362.207 475.379 366.212 477.381 370.343 479.196C376.687 481.985 383.084 484.706 389.549 487.313C393.776 489.018 398.287 490.149 403.03 490.584C410.59 491.276 415.845 488.418 417.711 482.571C417.959 481.793 418.136 480.984 418.173 480.184C418.31 477.231 418.656 474.261 418.404 471.326C417.907 465.561 416.994 459.82 416.383 454.061C415.9 449.507 415.312 444.941 415.301 440.38C415.282 433.301 417.093 426.487 421.412 420.204C421.782 419.667 422.339 419.213 423.011 418.508C423.811 419.246 424.428 419.688 424.851 420.228C426.471 422.296 427.525 424.548 428.311 426.906C432.343 438.984 436.455 451.046 440.471 463.128C441.722 466.893 442.898 470.681 443.869 474.498C446.895 486.404 446.903 498.205 442.571 510.007C439.067 519.553 436.571 529.306 434.899 539.188C432.767 551.795 432.361 564.378 435.074 576.959C436.269 582.495 435.38 587.909 433.891 593.347C432.277 593.673 430.82 593.968 428.833 594.37ZM413.496 289.164C414.333 290.203 415.015 290.962 415.586 291.772C425.236 305.492 434.916 319.2 444.495 332.951C449.179 339.676 454.39 346.089 460.797 351.861C474.1 363.847 490.636 371.864 509.461 377.044C518.541 379.542 527.665 381.938 536.775 384.366C546.373 386.923 556.082 389.158 566.011 390.751C580.025 392.998 592.488 397.808 603.337 405.231C606.406 407.331 609.371 409.538 612.242 411.809C616.312 415.029 620.258 418.349 624.246 421.635C650.286 443.098 676.751 464.215 704.286 484.469C715.05 492.387 726.966 498.825 740.039 503.996C751.531 508.544 763.413 512.348 775.4 515.954C783.599 518.421 791.832 520.814 800.036 523.268C804.582 524.627 808.902 526.338 813.431 528.789C812.237 529.042 811.63 529.276 811.019 529.28C808.998 529.294 806.972 529.272 804.954 529.178C798.559 528.879 792.172 528.362 785.773 528.25C765.697 527.902 746.263 524.947 727.402 519.505C706.969 513.608 688.19 505.203 670.398 495.353C649.024 483.519 630.316 469.464 615.31 452.431C600.553 435.679 581.551 422.89 558.815 413.541C541.322 406.35 522.782 401.532 503.634 398.088C499.694 397.38 495.752 396.612 491.907 395.636C478.289 392.181 466.466 386.513 457.173 377.667C454.039 374.684 450.466 371.993 447.066 369.19C446.401 368.642 445.607 368.192 444.707 367.585C443.919 368.545 443.231 369.3 442.651 370.103C440.466 373.134 438.321 376.182 436.151 379.22C431.894 385.18 427.586 391.115 423.4 397.105C422.132 398.919 420.589 399.657 418.068 398.821C417.86 398.42 417.568 398.069 417.501 397.693C416.717 393.166 415.861 388.643 415.236 384.1C414.51 378.832 415.059 373.703 417.367 368.618C421.96 358.494 422.266 348.111 419.448 337.615C417.745 331.272 415.028 325.209 411.766 319.292C409.854 315.825 408.378 312.26 407.756 308.503C406.809 302.773 405.938 297.035 405.082 291.295C405.031 290.959 405.406 290.582 405.629 290.131C408.134 289.823 410.61 289.519 413.496 289.164ZM1440.41 62.9849V50.0649C1439.24 49.9884 1438.08 49.8177 1436.91 49.8505C1427.11 50.1264 1417.36 49.6242 1407.66 48.4861C1395.24 47.0293 1383.2 44.462 1371.94 39.9989C1364.24 36.9489 1356.59 33.7762 1349.26 30.2038C1338.04 24.7314 1327.08 18.9224 1316.1 13.1505C1308.34 9.07595 1300.55 5.07799 1292.31 1.65453C1291.31 1.23984 1290.49 0.55768 1289.59 7.15256e-07L1187.35 7.15256e-07C1188.82 0.228792 1190.28 0.587088 1191.76 0.663632C1198.83 1.02953 1205.91 1.26336 1212.98 1.64944C1222.9 2.19198 1232.8 2.98689 1242.59 4.46478C1258.38 6.84858 1273.62 10.7128 1288.58 15.3181C1323.73 26.1377 1354.97 42.1178 1383.82 61.2472C1384.29 61.5601 1384.63 62.0008 1384.97 62.3179C1384.75 62.6266 1384.71 62.7889 1384.61 62.8268C1384.3 62.9319 1383.97 63.0236 1383.65 63.0556C1367.74 64.6251 1352.79 62.4567 1338.88 55.9328C1318.24 46.2546 1297.56 36.6268 1276.86 27.0352C1272.78 25.1477 1268.6 23.3779 1264.32 21.8033C1246.41 15.2104 1227.44 12.5213 1207.84 12.2689C1195.15 12.1057 1182.6 13.4213 1170.07 14.7966C1154.64 16.4898 1139.16 16.7648 1123.64 16.2593C1118.19 16.0818 1112.98 15.0809 1107.94 13.4356C1097 9.87336 1086.33 5.87373 1075.81 1.59314C1074.79 1.17762 1073.91 0.536651 1072.97 7.15256e-07H1035.52C1035.6 1.56117 1037.23 2.27109 1038.44 3.09037C1044.34 7.07655 1050.24 11.0644 1056.33 14.8563C1062.02 18.4034 1067.96 21.6965 1073.77 25.1258C1074.79 25.7298 1075.7 26.4574 1077.1 27.4281C1075.74 27.6712 1074.96 27.9133 1074.17 27.9335C1068.24 28.0883 1062.41 27.6434 1056.94 25.6246C1052.36 23.939 1047.75 22.308 1043.24 20.5172C1031.77 15.9616 1020.88 10.6691 1011.17 3.94412C1009.4 2.72025 1007.83 1.31892 1006.16 7.15256e-07H972.757C972.726 1.54098 974.273 2.3451 975.314 3.3427C982.92 10.6287 991.783 16.8263 1001.49 22.2592C1004.29 23.8271 1006.68 25.5783 1008.57 27.894C1011.77 31.8045 1016.15 34.7906 1021.51 36.6739C1024.88 37.8599 1028.42 38.8129 1032 39.5346C1037.57 40.6618 1043.32 40.7888 1049.06 40.9612C1060.86 41.3162 1072.65 41.7822 1084.44 42.2095C1085.11 42.2339 1085.79 42.2936 1086.45 42.3853C1087.95 42.593 1088.02 42.7033 1088.14 44.8272C1085.45 46.3909 1082.17 46.4295 1079.03 46.6381C1074.33 46.951 1069.6 47.1159 1064.88 47.1874C1048.62 47.433 1032.55 46.226 1016.82 42.7487C1004.21 39.9611 992.355 35.8605 981.737 29.663C969.544 22.5469 960.811 13.3683 955.865 1.95063C955.602 1.34333 955.648 0.651888 955.551 7.15256e-07H941.379C941.689 0.88825 941.974 1.78405 942.317 2.66557C943.211 4.96947 944.422 7.22288 944.983 9.57641C946.304 15.1187 945.921 20.555 942.128 25.543C941.548 26.306 940.673 26.9267 939.928 27.619C939.065 27.3389 938.432 27.1631 937.831 26.936C928.252 23.3064 918.749 19.565 909.791 15.0018C903.961 12.0317 897.773 9.65209 891.304 7.65605C886.297 6.11003 881.482 4.15353 876.648 2.27189C875.17 1.69739 873.907 0.767125 872.546 7.15256e-07H851.289C853.007 0.802453 854.659 1.71678 856.452 2.39138C872.178 8.30547 887.53 14.7528 901.991 22.4905C915.927 29.9456 928.713 38.4479 939.538 48.7351C941.84 50.9229 944.529 52.7911 947.65 54.1437C951.638 55.8722 955.695 57.5469 959.896 58.9037C964.73 60.4649 969.697 61.8115 974.706 62.974C992.503 67.1074 1010.36 71.0776 1028.16 75.195C1043.24 78.6824 1058.53 81.3051 1074.08 83.1043C1094.74 85.4948 1114.49 90.2406 1133.08 98.0035C1146.66 103.675 1161.28 106.777 1176.46 108.311C1184.85 109.159 1193.27 109.297 1201.7 109.43C1212.49 109.601 1223.29 109.728 1234.06 110.166C1248.04 110.733 1262 111.579 1275.96 112.319C1287.24 112.917 1298.51 113.512 1309.78 114.15C1322.06 114.845 1334.34 115.543 1346.61 116.322C1358.2 117.059 1369.8 117.813 1381.37 118.733C1388.09 119.265 1394.64 120.581 1401.1 122.164C1405.04 123.129 1407.19 125.351 1408.28 128.393C1408.73 129.654 1408.54 130.797 1407.44 131.787C1406.21 132.892 1404.99 134.02 1403.67 135.049C1380.04 153.353 1351.4 160.453 1319.04 158.716C1308.11 158.129 1297.2 157.251 1286.24 157.061C1276.28 156.889 1266.34 157.213 1256.43 158.001C1248.21 158.654 1239.99 159.32 1231.77 159.966C1223.89 160.586 1216 161.213 1208.11 161.795C1194.51 162.799 1180.91 163.776 1167.31 164.753C1157.57 165.453 1147.83 166.151 1138.09 166.82C1131.03 167.305 1123.98 167.843 1116.91 168.162C1113.05 168.336 1109.16 168.111 1105.29 168.038C1105 168.032 1104.72 167.797 1104.19 167.554C1104.1 167.088 1103.97 166.479 1103.81 165.716C1113.69 162.487 1122.95 158.542 1133.03 156.258C1137.39 155.272 1141.9 154.587 1146.4 154.185C1151.75 153.707 1157.16 153.448 1162.55 153.501C1177.61 153.646 1192.49 152.09 1207.38 150.592C1216.41 149.683 1225.42 148.675 1234.45 147.769C1246.5 146.562 1258.55 145.395 1270.6 144.24C1284.66 142.89 1298.74 141.689 1312.9 141.206C1321.33 140.92 1329.75 140.684 1338.17 140.305C1345.41 139.978 1352.64 139.502 1359.86 139.039C1361.19 138.954 1362.57 138.772 1363.78 138.355C1367.99 136.902 1371.46 134.612 1374.96 131.992C1373.67 130.712 1372.52 129.583 1371.51 128.592C1370.68 128.509 1370.18 128.423 1369.68 128.417C1348.77 128.113 1327.86 127.782 1306.95 127.532C1292.27 127.357 1277.61 127.876 1262.97 128.728C1252.04 129.365 1241.12 130.102 1230.2 130.85C1221.64 131.437 1213.08 132.104 1204.51 132.745C1195.12 133.451 1185.72 134.204 1176.32 134.871C1166.07 135.597 1155.82 136.275 1145.57 136.925C1131.38 137.825 1117.2 137.571 1103.29 135.103C1088.98 132.566 1074.75 129.71 1060.6 126.682C1037.46 121.733 1014.71 115.827 992.761 108.106C972.779 101.075 953.885 92.5772 936.8 81.6297C930.362 77.5039 923.738 73.5615 917.253 69.4811C914.212 67.5675 911.17 65.6329 908.359 63.5132C904.087 60.2933 901.22 56.4139 900.389 51.6597C899.323 45.5673 895.138 40.9923 889.114 37.3712C885.048 34.9269 880.588 33.0208 875.888 31.5017C871.517 30.0894 867.077 28.8092 862.642 27.5264C845.451 22.5519 831.787 13.9125 821.144 2.13816C820.58 1.51403 820.315 0.716656 819.911 7.15256e-07H706.54C706.702 1.6007 706.673 3.23249 707.062 4.79786C708.365 10.0584 709.832 15.2928 711.192 20.5449C711.344 21.1354 711.212 21.773 711.212 22.5898C710.058 22.4114 709.24 22.3366 708.461 22.1558C704.425 21.2196 700.37 20.3254 696.373 19.2908C680.475 15.176 665.212 9.93644 651.103 2.71184C649.576 1.93042 648.241 0.909279 646.819 7.15256e-07H620.501C618.417 2.92298 618.319 2.99867 614.741 2.4309C611.771 1.9607 608.819 1.41732 605.882 0.836092C605.305 0.721696 604.828 0.286831 604.305 7.15256e-07L541.546 7.15255e-07C542.206 8.44426 542.916 16.8869 543.512 25.3336C544.146 34.3188 544.677 43.308 545.235 52.2956C545.298 53.3067 545.243 54.3237 545.243 55.5787C544.4 55.3019 543.86 55.2514 543.568 55.01C536.94 49.5342 531.557 43.4468 528.824 36.0312C524.583 24.5286 518.772 13.5357 511.79 2.92715C511.17 1.98507 510.704 0.977411 510.166 7.15255e-07H473.727C484.326 14.3912 495.764 28.3365 508.322 41.6972C537.608 72.8541 574.148 96.921 618.26 113.689C638.821 121.504 659.873 128.359 681.137 134.826C753.565 156.856 825.988 178.898 898.43 200.901C904.461 202.732 910.004 205.229 915.352 208.051C915.583 208.174 915.635 208.513 915.886 208.954C915.329 209.733 914.693 210.623 914.131 211.407C909.767 211.407 905.725 211.479 901.688 211.39C896.449 211.275 891.305 210.695 886.283 209.368C875.087 206.409 863.809 203.65 852.629 200.655C827.07 193.807 801.402 187.236 775.474 181.329C764.929 178.928 754.253 176.959 743.327 176.05C731.917 175.101 720.563 173.885 709.358 171.909C683.556 167.36 659.537 159.533 638.004 147.136C631.699 143.504 624.907 140.527 617.833 137.948C606.135 133.682 593.933 130.621 581.417 128.348C555.236 123.589 532.855 113.357 513.683 98.5082C501.104 88.7652 491.395 77.3222 482.877 65.1727C477.367 57.3089 471.698 49.5157 466.095 41.693C460.494 33.8695 454.841 26.0696 449.299 18.22C445.901 13.407 443.126 8.35678 440.96 3.10719C440.555 2.12221 440.526 1.03797 440.322 7.15255e-07H415.016C416.31 7.62919 420.172 14.4332 425.536 20.7426C429.337 25.215 433.82 29.2281 438.739 32.9342C444.031 36.9178 448.848 41.2186 452.804 46.1141C461.711 57.1348 464.658 69.0824 461.793 81.9914C460.818 86.3873 459.249 90.6401 457.161 94.7508C449.251 110.323 441.224 125.856 433.223 141.399C433.041 141.751 432.657 142.037 432.389 142.33C430.779 142.637 429.38 142.487 428.002 141.726C428.052 141.112 428.033 140.579 428.148 140.066C431.075 127.063 434.686 114.231 442.693 102.472C443.978 100.586 445.082 98.61 446.084 96.6165C447.337 94.125 448.512 91.6007 449.526 89.0411C454.54 76.3903 449.47 61.9764 435.561 51.0785C434.585 51.4822 433.523 51.865 432.529 52.3386C416.796 59.8433 405.988 70.4737 400.958 84.594C398.603 91.202 394.099 96.5575 387.449 100.75C383.626 103.161 379.48 105.252 375.41 107.404C371.758 109.335 367.946 111.076 364.316 113.03C353.588 118.806 344.278 125.767 337.043 134.377C332.821 139.402 328.693 144.481 324.664 149.606C320.722 154.618 316.972 159.724 313.105 164.774C312.63 165.394 312.362 166.347 310.838 166.058C310.198 158.512 311.108 151.064 313.36 143.705C317.072 131.569 324.444 120.963 334.482 111.468C340.814 105.479 348.059 100.264 355.621 95.2874C361.468 91.4392 367.161 87.4311 372.716 83.3179C376.929 80.199 380.47 76.5736 383.372 72.6001C386.766 67.9536 390.143 63.2953 393.36 58.5697C396.902 53.3664 399.968 47.9806 402.399 42.3752C404.67 37.1433 406.271 31.786 406.786 26.2605C407.512 18.4833 405.936 10.9912 402.194 3.7742C401.574 2.57809 400.31 1.47705 400.846 7.15255e-07H387.686C387.925 1.05059 388.107 2.1129 388.411 3.15087C391.345 13.158 391.377 23.118 387.933 33.0721C385.348 40.539 381.176 47.3909 375.818 53.8139C369.807 61.02 362.588 67.3925 354.674 73.2864C351.47 75.6719 348.238 78.0372 345.114 80.4883C337.045 86.8196 329.557 93.553 323.16 101.024C314.969 110.59 309.202 120.961 307.057 132.484C306.325 136.417 304.663 140.055 302.099 143.4C299.467 146.838 296.447 150.085 293.748 153.491C291.713 156.061 288.795 157.498 285.208 158.095C282.579 158.533 279.893 158.949 277.223 158.98C271.258 159.048 266.347 155.09 266.324 150.308C266.285 142.105 266.209 133.898 266.409 125.696C266.76 111.232 269.32 97.0244 275.226 83.2969C278.997 74.5288 283.062 65.8406 286.965 57.1078C288.039 54.7047 289.173 52.3066 289.992 49.8445C293.819 38.3091 290.034 28.5863 278.682 20.8275C276.007 18.9997 273.055 17.4024 270.079 15.8875C264.948 13.2766 259.331 11.4396 253.726 9.57054C246.894 7.29019 240.149 4.83492 233.417 2.36447C231.763 1.75717 230.311 0.797406 228.765 7.15255e-07H184.227C185.366 0.979935 186.428 2.02547 187.656 2.92886C196.586 9.50578 205.839 15.7664 215.683 21.4702C223.492 25.9956 230.621 31.1266 236.552 37.2467C241.239 42.0833 244.873 47.3599 246.926 53.2798C250.003 62.1497 249.031 70.8875 245.262 79.4605C242.676 85.3434 241.142 91.3677 240.52 97.5653C239.635 106.375 241.665 114.7 246.923 122.503C247.721 123.686 248.588 124.844 249.312 126.056C250.019 127.24 250.516 128.483 249.731 130.165C248.588 129.44 247.644 128.929 246.829 128.309C233.511 118.165 225.744 105.823 223.551 91.2104C222.81 86.2762 221.93 81.332 220.605 76.4811C216.422 61.1655 207.06 48.1884 192.333 37.7405C189.181 35.5056 186.005 33.2925 182.8 31.1072C167.911 20.9596 152.383 11.4749 136.258 2.61089C134.917 1.87405 133.163 1.45266 132.603 7.15255e-07H95.1512C95.4 1.14648 96.7223 1.28354 97.7166 1.70496C102.778 3.85072 107.905 5.89894 112.911 8.12545C129.462 15.4872 145.071 23.9221 159.002 34.2304C180.59 50.2046 195.614 69.201 201.687 92.4628C204.358 102.695 209.641 112.094 217.157 120.745C227.931 133.146 239.571 144.992 251.736 156.532C255.363 159.972 259.466 162.902 264.224 165.273C268.371 167.341 272.54 169.379 276.665 171.472C277.302 171.795 278.32 171.949 278.228 172.969C275.179 173.201 272.292 172.468 269.383 172.005C239.128 167.192 214.441 155.383 196.784 134.912C189.139 126.049 181.466 117.186 174.335 108.059C164.884 95.962 156.029 83.5694 146.765 71.3779C141.959 65.055 137.063 58.7607 131.789 52.6843C121.023 40.2791 107.712 29.8892 92.0049 21.4281C78.7151 14.2675 65.1152 7.54423 50.7721 1.79921C49.6196 1.33826 48.6369 0.606466 47.5761 7.15255e-07H5.06125C6.72828 0.614878 8.35415 1.31551 10.0676 1.83198C30.734 8.05393 48.8414 17.4117 64.4488 29.8817C73.6644 37.2434 81.778 45.3285 89.0081 53.9519C99.3192 66.2511 109.38 78.6841 119.5 91.0842C126.491 99.6513 133.261 108.337 140.392 116.83C147.92 125.798 156.61 134.025 166.427 141.477C184.098 154.887 204.788 164.192 227.876 170.215C231.91 171.267 235.718 172.661 239.403 174.302C239.941 174.541 240.371 174.934 240.845 175.251C239.314 176.792 239.305 176.826 238.049 176.604C235.416 176.142 232.808 175.584 230.165 175.163C214.893 172.728 200.198 168.909 185.957 163.873C146.042 149.755 113.617 128.649 90.2682 99.0011C85.962 93.5336 81.6177 88.0855 77.3273 82.6097C71.2487 74.8484 64.9455 67.2109 58.0381 59.8954C42.5973 43.5427 24.6828 29.2239 3.46808 17.6194C2.39574 17.0323 1.15991 16.6353 5.61359e-05 16.15V40.375C6.6808 45.654 13.3616 50.9322 20.0392 56.2137C20.3945 56.4955 20.7256 56.7983 21.0451 57.1053C21.1463 57.2029 21.2 57.3417 21.2338 57.4687C21.2644 57.5823 21.2411 57.7068 21.2411 58.0752C20.4018 57.944 19.6006 57.8674 18.8372 57.6908C12.555 56.2356 6.27907 54.7627 5.61359e-05 53.2949V63.7925C0.961679 64.0305 1.90115 64.3855 2.88492 64.4872C9.05849 65.1307 15.2289 65.8372 21.4278 66.2889C26.8516 66.6851 32.0868 67.5086 37.014 69.3945C50.2237 74.4497 60.9725 81.8156 69.1453 91.5006C70.9125 93.595 72.1376 95.9948 73.4545 98.3113C73.986 99.2475 74.4499 100.328 73.5031 101.566C72.2979 101.245 71.0462 100.962 69.8421 100.584C47.9124 93.6985 25.9861 86.8061 4.06907 79.8961C2.67198 79.4554 1.35497 78.854 5.61359e-05 78.3274V93.6699C2.48952 93.9256 5.00332 94.0803 7.46537 94.4538C21.7231 96.6139 35.7784 99.3947 49.4309 103.376C66.912 108.474 82.6964 115.694 95.8713 126.385C101.539 130.984 107.641 135.258 113.745 139.496C127.417 148.99 142.236 157.144 158.679 163.332C159.44 163.619 160.234 163.879 160.916 164.263C161.257 164.455 161.38 164.896 161.813 165.538C160.178 165.446 158.848 165.498 157.592 165.278C152.162 164.329 146.708 163.434 141.343 162.277C117.063 157.039 95.1079 148.277 76.0958 134.964C61.2602 124.576 44.4329 116.718 26.2465 110.658C17.6783 107.803 8.84129 105.58 5.61359e-05 103.36V128.392C6.63125 128.261 13.0705 129.371 19.4972 130.424C36.6756 133.239 52.5793 138.672 67.6806 145.675C73.3628 148.311 78.9617 151.06 84.6038 153.75C93.4324 157.96 102.39 161.979 111.709 165.468C130.407 172.469 149.993 176.531 170.718 176.857C171.408 176.868 172.095 177.053 172.783 177.157C170.911 177.624 169.08 177.706 167.249 177.71C154.409 177.731 141.663 176.828 128.971 175.313C108.509 172.87 88.7699 168.458 70.1131 161.274C54.8537 155.397 38.9995 150.992 22.4358 148.206C15.0212 146.958 7.58971 145.749 5.61359e-05 145.35V175.227C20.0149 182.52 56.021 197.938 62.106 201.932C60.6245 201.738 59.6493 201.688 58.733 201.476C51.6094 199.831 44.6987 197.75 38.0875 195.046C26.8475 190.448 15.2859 186.436 3.37315 183.083C2.29554 182.78 1.12722 182.686 5.61359e-05 182.495V195.415C0.957461 195.67 1.89488 195.983 2.87232 196.171C12.7532 198.069 22.2217 200.836 31.2021 204.65C39.2378 208.061 47.3431 211.375 55.3102 214.886C74.2306 223.222 92.5415 232.318 109.441 243.124C122.789 251.659 135.088 261.049 145.067 272.181C151.438 279.288 157.354 286.654 163.436 293.923C166.873 298.031 168.108 302.492 166.739 307.382C165.128 313.136 167.047 318.304 171.12 323.054C173.619 325.967 176.744 328.433 180.234 330.57C183.307 332.452 186.502 334.213 189.722 335.934C200.095 341.479 207.741 348.807 212.7 357.949C215.795 363.654 217.867 369.602 219.524 375.652C219.648 376.105 219.402 376.622 219.281 377.427C216.476 376.54 214.003 375.719 211.494 374.977C207.822 373.89 204.504 372.37 201.461 370.381C196.375 367.056 191.056 363.952 186.033 360.568C178.821 355.709 171.6 350.84 164.72 345.688C154.804 338.264 146.75 329.694 140.804 319.863C138.025 315.269 134.846 310.812 131.54 306.441C126.972 300.402 121.2 295.154 114.114 290.876C108.838 287.692 103.09 285.185 96.9795 283.169C95.1301 282.558 93.3756 281.741 91.6506 280.921C89.487 279.892 87.473 278.649 85.2629 277.694C60.9514 267.186 36.6071 256.728 12.2934 246.226C8.14538 244.435 4.09539 242.502 5.61359e-05 240.635V261.63C0.482976 261.695 1.02077 261.673 1.44043 261.84C19.9822 269.221 38.5103 276.626 57.05 284.012C61.7453 285.882 66.1939 288.034 70.1247 290.837C96.5219 309.656 122.931 328.466 149.324 347.291C150.036 347.8 150.604 348.44 151.192 348.976C150.258 350.363 149.161 350.042 148.094 349.512C141.798 346.387 135.456 343.318 129.25 340.083C125.871 338.322 122.628 336.37 119.505 334.327C111.663 329.201 103.376 324.6 94.6661 320.47C82.475 314.689 69.7167 309.814 56.7527 305.262C39.7894 299.308 22.8175 293.369 5.86358 287.397C3.86442 286.693 1.95283 285.835 5.61359e-05 285.047V308.465C5.88789 308.705 11.7768 308.92 17.6625 309.191C29.3728 309.732 40.6814 311.609 51.4533 315.449C75.1765 323.903 98.2458 333.38 120.839 343.597C128.182 346.917 135.077 350.803 141.565 355.125C148.194 359.541 154.223 364.412 159.073 370.15C159.492 370.648 160.287 371.138 159.369 371.933C157.817 371.147 156.227 370.393 154.703 369.56C147.186 365.461 139.722 361.3 132.176 357.236C120.857 351.141 109.568 345.005 98.114 339.072C72.2852 325.693 43.8731 318.952 13.116 318.512C8.74859 318.451 4.3727 318.802 5.61359e-05 318.962V329.459C0.669607 329.507 1.33914 329.588 2.00974 329.598C13.6779 329.756 25.1405 331.055 36.4174 333.46C52.5773 336.906 67.8462 342.207 83.0361 347.671C83.4315 347.813 83.7129 348.157 84.4226 348.687C83.229 348.84 82.4782 348.996 81.7191 349.026C76.0021 349.248 70.284 349.455 64.566 349.646C50.6045 350.117 36.6408 350.546 22.6825 351.052C15.1182 351.327 7.56018 351.726 5.61359e-05 352.069V365.797C2.00027 365.993 3.99525 366.293 6.00179 366.367C16.78 366.77 27.5634 367.092 38.3416 367.49C51.8138 367.989 65.2786 368.547 78.561 370.633C95.2629 373.254 111.036 377.717 125.276 385.318C131.346 388.558 137.968 390.856 144.959 392.517C155.704 395.07 166.746 396.023 177.881 396.409C187.988 396.76 198.11 396.843 208.205 397.313C216.443 397.698 224.719 398.137 232.861 399.155C254.73 401.889 276.055 406.376 296.637 412.943C314.424 418.621 331.067 425.905 345.824 435.761C358.769 444.408 369.383 454.579 377.368 466.463C377.871 467.212 378.885 467.949 378.217 469.016C377.871 469.016 377.487 469.112 377.267 469.001C371.428 466.062 365.26 463.455 359.84 460.082C335.547 444.958 308.794 433.546 279.764 425.423C247.259 416.33 213.677 411.537 179.436 409.386C168.513 408.701 157.602 407.979 146.778 406.551C127.792 404.046 109.195 400.276 90.7912 395.839C79.0208 393.001 67.2978 390.028 55.2544 387.96C42.9642 385.851 30.5485 385.068 18.0579 386.151C12.032 386.674 6.07241 387.457 5.61359e-05 386.792V396.482C12.5539 399.043 25.0729 401.72 37.6699 404.136C50.6128 406.618 63.7277 408.413 76.9943 409.388C91.6706 410.465 88.9818 409.682 102.863 414.156C103.954 414.509 105.098 414.769 106.155 415.178C106.785 415.422 107.291 415.871 108.192 416.444C98.365 418.738 88.9101 419.598 79.2316 418.724C72.1639 418.084 65.3534 416.607 58.6505 414.768C42.2207 410.26 25.4356 406.857 8.33618 404.42C5.53566 404.02 2.77737 403.439 5.61359e-05 402.942V423.13C3.15907 423.483 6.30866 423.887 9.47505 424.18C23.5377 425.483 37.6025 426.775 51.6726 428.031C67.5583 429.449 82.7925 432.662 97.0903 438.454C106.257 442.167 115.46 445.826 124.516 449.706C144.301 458.179 163.32 467.617 181.044 478.668C203.493 492.666 222.317 509.161 236.026 529.201C237.557 531.439 239.074 533.701 240.299 536.052C242.404 540.092 243.419 544.278 242.097 548.664C241.823 549.573 241.769 550.528 241.659 551.465C241.108 556.078 242.447 560.339 245.984 563.996C248.13 566.215 250.552 568.334 253.233 570.138C256.439 572.297 259.988 574.149 263.502 575.998C271.917 580.431 279.088 585.842 284.469 592.681C290.637 600.52 294.347 609.131 296.821 618.116C296.886 618.353 296.71 618.63 296.576 619.172C295.485 619.624 294.193 620.161 293.052 620.636C285.114 617.972 277.769 615.028 271.415 610.673C267.836 608.219 264.049 605.959 260.426 603.546C247.846 595.169 235.916 586.262 225.564 576.085C215.932 566.614 208.012 556.355 203.08 544.742C201.862 541.874 199.973 539.339 197.194 537.32C194.461 535.334 191.674 533.33 188.587 531.732C181.238 527.928 173.824 524.18 166.204 520.734C152.862 514.7 139.368 508.88 125.897 503.028C115.524 498.523 104.817 494.591 93.7077 491.357C89.9129 490.253 86.1834 488.987 82.4951 487.666C69.1863 482.906 56.6725 477.084 46.0135 469.063C33.8688 459.924 19.707 453.693 3.89506 449.695C2.62871 449.374 1.30014 449.208 5.61359e-05 448.97V474.002C3.31934 476.34 7.19327 477.979 11.1125 479.538C19.6026 482.917 28.6504 485.004 37.7827 486.951C44.4444 488.37 51.1179 489.867 57.5614 491.803C82.9147 499.424 102.608 512.508 116.41 531.176C118.956 534.618 120.398 538.255 120.576 542.242C120.695 544.929 120.934 547.612 121.093 550.298C121.139 551.069 121.1 551.843 121.1 552.601C117.852 553.69 115.451 553.337 113.002 551.548C107.662 547.643 101.97 544.044 96.6347 540.135C87.5288 533.467 77.6426 527.669 67.0089 522.669C54.6396 516.853 41.6187 512.126 28.2836 507.917C20.6096 505.495 12.9766 502.99 5.35851 500.459C3.50591 499.845 1.78307 498.978 5.61359e-05 498.227V528.104C2.94503 527.253 5.92689 527.291 8.95938 527.788C21.5248 529.847 33.8308 532.606 45.7225 536.467C53.0707 538.853 60.1173 541.718 66.7284 545.241C76.9921 550.71 85.4095 557.555 91.2583 566.287C93.3197 569.366 95.3884 572.455 97.1682 575.64C107.574 594.268 109.371 613.734 105.789 633.688C105.05 637.805 104.101 641.896 103.248 645.999H131.59C131.67 644.398 131.606 642.783 131.857 641.199C132.517 637.034 132.575 632.883 131.773 628.734C131.212 625.831 130.569 622.939 129.855 619.525C130.77 620.487 131.427 621.022 131.86 621.656C135.996 627.687 139.433 633.954 141.795 640.58C142.438 642.388 143.089 644.193 143.738 645.999H164.995C163.294 641.086 161.721 636.141 159.866 631.265C153.577 614.751 145.706 598.781 133.958 584.172C133.636 583.77 133.464 583.29 133.039 582.513C136.85 584.205 137.922 584.956 140.771 587.981C145.327 592.817 149.85 597.673 154.388 602.519C166.897 615.872 179.417 629.218 191.887 642.592C192.859 643.634 194.321 644.503 194.35 645.999H255.083C254.859 645.8 254.66 645.576 254.407 645.404C231.801 629.949 211.602 612.646 192.744 594.314C170.065 572.263 149.334 549.017 127.388 526.517C126.994 526.114 126.545 525.662 127.47 525.147C128.736 525.712 130.074 526.277 131.372 526.892C145.93 533.786 159.33 541.898 171.555 551.243C184.882 561.432 196.359 572.84 206.796 584.957C211.186 590.051 215.746 595.066 220.543 599.921C229.78 609.269 240.429 617.469 252.837 624.149C271.38 634.131 292.019 639.555 314.023 641.944C319.864 642.579 325.754 642.926 331.605 643.511C335.267 643.876 338.938 644.332 342.136 645.999H403.882C404.156 645.663 404.5 645.35 404.692 644.987C409.341 636.228 416.222 628.636 423.988 621.509C429.054 616.86 435.311 613.526 442.34 611.084C443.873 610.551 445.486 610.084 447.121 609.828C453.892 608.771 460.027 612.121 461.291 617.506C461.477 618.293 461.572 619.107 461.566 619.908C461.517 627.174 462.676 634.372 463.428 641.593C463.581 643.055 463.55 644.531 463.603 645.999H505.105C504.855 645.236 504.708 644.44 504.338 643.717C503.066 641.229 501.574 638.808 500.432 636.284C498.662 632.373 496.776 628.462 495.53 624.436C492.21 613.71 496.398 605.786 508.118 599.98C509.972 599.06 511.977 598.335 513.883 597.479C514.41 597.242 514.832 596.855 515.682 596.28C513.23 595.83 511.304 595.447 509.364 595.127C500.452 593.657 491.592 592.008 483.039 589.506C479.264 588.4 475.537 587.087 472.023 585.532C465.287 582.551 462.458 577.885 463.28 571.724C463.839 567.536 465.389 563.575 467.068 559.633C470.213 552.254 473.278 544.858 475.288 537.217C478.475 525.115 478.357 513.194 472.191 501.605C471.978 501.206 472.06 500.706 471.937 499.708C474.158 501.155 475.825 502.273 477.534 503.348C484.382 507.656 488.906 513.076 490.978 519.926C495.082 533.497 500.024 546.922 501.396 560.932C501.487 561.867 501.768 562.791 501.908 563.724C502.551 568.024 504.753 571.601 508.838 574.585C519.687 582.516 526.645 592.341 530.528 603.627C532.718 609.99 534.13 616.47 535.432 622.97C537.002 630.808 538.866 638.581 542.558 645.999H567.864C568.53 641.872 568.98 637.712 569.925 633.626C570.81 629.806 572.19 626.056 573.408 622.287C575.021 617.289 575.717 612.237 574.719 607.113C574.074 603.798 573.318 600.489 572.402 597.215C569.432 586.602 566.347 576.009 563.345 565.4C562.388 562.015 561.442 558.62 561.583 554.98C564.2 554.161 566.762 553.807 569.545 553.99C569.975 554.68 570.403 555.252 570.699 555.863C580.012 575.019 589.288 594.184 598.646 613.325C599.617 615.312 599.771 617.174 598.973 619.19C596.535 625.349 594.925 631.663 593.685 638.04C593.171 640.692 592.667 643.346 592.157 645.999L615.439 645.999C615.734 644.548 616.16 643.103 616.297 641.641C616.549 638.96 616.616 636.266 616.787 633.58C617.381 624.255 616.294 615.049 613.937 605.912C609.484 588.631 601.463 572.45 590.527 557.156C578.42 540.225 563.509 524.974 546.477 511.064C525.361 493.819 505.486 475.714 486.316 457.098C476.147 447.223 465.955 437.364 455.786 427.488C452.143 423.951 448.672 420.317 446.032 416.222C443.36 412.077 441.808 407.733 442.214 403.03C442.267 402.417 442.048 401.648 443.377 401.322C444.257 401.991 445.238 402.697 446.166 403.445C452.093 408.229 457.954 413.066 463.937 417.805C492.214 440.199 523.089 459.835 558.604 474.557C564.607 477.046 570.13 480.15 575.213 483.719C588.291 492.903 596.396 504.136 597.495 518.258C598.382 529.693 603.911 539.605 613.299 548.181C615.624 550.305 618.211 552.246 620.669 554.278C623.595 556.697 626.691 559.001 629.402 561.565C644.464 575.801 652.194 592.218 651.69 610.902C651.355 623.352 647.09 635.031 639.732 645.999H679.211C679.905 645.085 680.556 644.148 681.301 643.261C685.298 638.506 688.194 633.362 689.299 627.7C690.647 620.785 691.652 613.837 691.124 606.802C690.894 603.712 691.097 600.628 691.959 597.574C693.87 590.811 698.201 585.137 704.014 580.106C708.847 575.923 714.443 572.471 720.364 569.337C725.284 566.733 730.207 564.136 735.12 561.525C736.101 561.004 737.187 560.539 737.951 559.854C738.407 559.444 738.542 558.626 738.413 558.049C738.336 557.704 737.513 557.319 736.951 557.222C736.148 557.084 735.276 557.202 734.433 557.193C730.725 557.148 726.999 557.261 723.311 557.015C713.73 556.375 704.196 555.377 694.785 553.771C683.374 551.824 672.279 549.094 661.788 544.94C644.761 538.199 631.677 528.283 623.396 514.523C619.458 507.978 615.512 501.433 611.725 494.832C609.726 491.349 607.094 488.345 603.543 485.735C595.354 479.718 587.379 473.517 579.236 467.459C571.095 461.401 562.983 455.313 554.636 449.439C539.539 438.814 523.413 429.278 505.555 421.797C496.655 418.067 488.597 413.538 481.254 408.117C479.027 406.472 476.687 404.924 474.442 403.294C473.883 402.887 473.495 402.331 472.837 401.646C476.075 400.965 478.876 400.635 481.732 401.103C484.698 401.589 487.749 401.916 490.582 402.719C510.977 408.508 530.598 415.615 548.818 425.02C562.489 432.079 574.959 440.275 585.435 450.272C590.861 455.45 596.801 460.202 603.013 464.767C614.18 472.972 625.294 481.222 636.398 489.48C644.318 495.371 651.489 501.722 657.28 509.114C664.633 518.502 674.962 525.327 687.903 529.413C692.584 530.891 697.455 532.153 702.385 532.923C715.452 534.965 728.577 536.779 741.715 538.51C763.171 541.336 784.658 544.018 806.127 546.784C807.238 546.928 808.305 547.295 809.42 547.565C809.42 548.177 809.501 548.577 809.407 548.949C808.679 551.838 806.634 554.103 804.013 556.087C800.303 558.895 795.978 560.984 791.475 562.843C787.432 564.512 783.304 566.047 779.25 567.697C769.146 571.812 759.646 576.658 751.127 582.669C734.699 594.257 724.61 608.568 721.572 626.004C720.388 632.798 718.494 639.498 715.65 645.999H743.994C744.124 645.067 744.174 644.121 744.399 643.203C748.477 626.614 758.328 612.481 773.031 600.411C784.537 590.965 797.932 583.58 812.28 577.168C823.393 572.203 834.994 568.391 847.498 566.317C850.342 565.846 852.302 566.34 853.991 568.257C849.423 573.875 845.206 579.551 839.467 584.352C834.813 588.246 830.137 592.125 825.353 595.916C816.738 602.742 808.062 609.512 800.202 616.918C795.503 621.345 790.174 625.241 784.214 628.615C777.108 632.636 771.36 637.702 767.089 643.785C766.629 644.44 766.529 645.257 766.263 645.999H796.629C799.146 641.986 802.803 638.634 806.526 635.35C816.142 626.863 826.208 618.729 837.119 611.293C848.14 603.781 859.295 596.395 870.33 588.897C877.044 584.334 884.363 580.541 892.251 577.421C904.244 572.677 916.94 569.549 929.887 567.004C930.656 566.854 931.486 566.9 932.704 566.831C931.841 570.802 929.466 574.111 928.572 577.851C929.43 578.516 930.245 579.148 930.899 579.657C931.38 579.657 931.564 579.691 931.716 579.651C933.151 579.27 934.575 578.864 936.012 578.488C948.2 575.302 960.621 574.171 973.405 575.496C980.791 576.263 988.057 577.44 995.058 579.385C1004.76 582.08 1014.41 584.913 1023.9 588.027C1033.58 591.199 1041.81 596.067 1047.93 602.951C1056.01 612.048 1058.29 622.038 1054.83 632.848C1054.67 633.334 1054.61 633.934 1053.22 633.746C1051.93 631.82 1050.55 629.683 1049.07 627.596C1047.16 624.911 1045.37 622.146 1043.16 619.625C1036.29 611.812 1026.93 606.881 1015.26 604.725C1006.96 603.194 998.55 602.763 990.143 603.621C983.74 604.273 977.69 603.61 971.839 601.684C968.114 600.459 964.497 598.996 960.94 597.477C955.737 595.255 950.571 593.003 944.909 591.572C938.654 589.991 932.362 589.773 925.963 590.956C921.334 591.81 916.962 593.191 912.705 594.827C900 599.71 888.618 606.111 878.301 613.768C871.313 618.955 865.645 624.892 861.351 631.702C858.626 636.022 855.624 640.229 852.783 644.503C852.49 644.946 852.457 645.498 852.302 645.999H882.67C882.605 645.317 881.54 644.712 882.627 643.764C883.661 644.514 884.684 645.257 885.705 645.999H916.073C909.861 641.7 903.639 637.41 897.445 633.094C896.61 632.512 895.912 631.808 895.199 631.202C896.686 629.398 898.433 629.305 900.648 629.738C913.685 632.288 926.779 634.657 939.798 637.264C946.656 638.637 953.2 640.762 959.237 643.754C960.476 644.367 961.508 645.243 962.635 645.999H994.015C990.754 644.095 987.589 642.073 984.214 640.308C974.584 635.277 964.225 631.386 953.439 628.22C947.589 626.504 941.674 624.93 935.805 623.259C934.837 622.983 933.943 622.54 932.563 621.996C933.781 621.631 934.381 621.368 935.021 621.271C942.47 620.146 949.903 618.938 957.384 617.969C965.422 616.928 973.521 617.023 981.578 617.902C984.401 618.21 987.188 618.809 989.947 619.404C992.26 619.903 994.227 620.918 995.875 622.349C1003.53 628.988 1010.96 635.771 1017.37 643.216C1018.12 644.088 1018.68 645.069 1019.32 645.999H1052.72C1053.08 644.982 1053.43 643.966 1053.79 642.96C1055.54 642.611 1057.16 642.366 1058.8 643.214V645.999H1099.29C1099.36 645.602 1099.36 645.181 1099.53 644.809C1101.86 639.603 1103.44 634.245 1104.8 628.833C1105.76 625.003 1107.17 621.276 1109.28 617.727C1110 616.518 1110.59 615.238 1111.01 613.943C1112.74 608.595 1111.09 604.1 1105.47 600.697C1104.4 600.048 1103.28 599.43 1102.11 598.91C1093.41 595.071 1084.8 591.094 1075.95 587.483C1065.11 583.062 1053.72 579.718 1041.85 577.496C1035.78 576.36 1029.7 575.258 1023.61 574.19C1006.95 571.264 990.923 566.647 974.746 562.435C974.129 562.275 973.591 561.924 973.054 561.677C973.445 559.827 974.709 559 976.934 559.105C977.775 559.145 978.621 559.112 979.463 559.139C991.089 559.508 1002.7 559.914 1014.27 561.078C1029.7 562.632 1044.88 565.054 1059.71 568.761C1075.05 572.594 1089.73 577.65 1103.48 584.332C1109.12 587.074 1114.31 590.283 1118.75 594.217C1124.3 599.135 1127.99 604.763 1129.18 611.38C1130.1 616.567 1129.07 621.57 1127.08 626.483C1124.39 633.142 1121.28 639.676 1117.51 645.999H1158C1158.08 645.468 1158.09 644.919 1158.27 644.406C1160.29 638.56 1161.74 632.622 1162.65 626.608C1163.79 619.101 1163.95 611.559 1162.75 604.055C1160.49 589.98 1153.65 577.411 1142.69 566.25C1134.61 558.03 1125.03 551.084 1114.48 544.956C1111.75 543.372 1108.94 541.878 1106.18 540.336C1093.17 533.084 1084.13 523.455 1079.01 511.472C1076.56 505.719 1075.07 499.799 1073.97 493.799C1072.14 483.817 1069.99 473.885 1066.9 464.088C1061.34 446.444 1051.67 430.501 1036.5 416.797C1032.14 412.864 1027.89 408.848 1023.36 405.051C1008.35 392.482 994.334 379.177 978.831 366.978C978.59 366.789 978.357 366.594 978.136 366.391C977.595 365.899 976.89 365.445 977.439 364.67C980.673 363.268 983.871 363.36 987.038 364.826C987.327 364.961 987.664 365.031 987.964 365.151C1006.41 372.541 1023.95 381.059 1039.69 391.797C1049.34 398.386 1058.02 405.696 1065.24 414.069C1074.95 425.342 1081.3 437.662 1083.38 451.302C1083.93 454.905 1084.36 458.522 1085 462.115C1087.87 478.123 1096.61 491.767 1111.1 503.066C1117.15 507.787 1123.81 511.909 1130.99 515.475C1135.81 517.864 1139.76 520.93 1142.96 524.628C1144.58 526.508 1146.22 528.399 1147.61 530.394C1152.76 537.804 1157.89 545.222 1162.87 552.705C1168.41 561.029 1174.16 569.24 1180.92 576.988C1184.49 581.082 1187.44 585.47 1189.85 590.08C1195.01 599.959 1196.1 610.066 1192.84 620.497C1190.15 629.118 1186.8 637.574 1183.3 645.999H1234.93C1234.84 644.794 1234.9 643.568 1234.64 642.387C1232.74 633.784 1231.11 625.133 1228.77 616.607C1221.16 588.948 1208.39 562.882 1190.02 538.61C1171.64 514.338 1148.62 493.2 1122.05 474.446C1118.4 471.867 1115.03 469.033 1111.55 466.296C1111.14 465.97 1110.43 465.646 1111.05 464.814C1111.92 465.051 1112.86 465.243 1113.74 465.559C1120.04 467.82 1126.42 469.954 1132.59 472.412C1162.76 484.42 1187.5 501.449 1206.94 523.455C1223.88 542.619 1236.82 563.342 1246.1 585.558C1252.82 601.663 1257.65 618.137 1261.26 634.848C1262.06 638.547 1262.61 642.282 1263.27 645.999L1294.65 645.999C1291.99 640.476 1289.28 634.97 1286.7 629.426C1284.35 624.385 1281.97 619.348 1279.92 614.229C1275.28 602.632 1272.34 590.765 1272.58 578.548C1272.72 571.458 1271.36 564.628 1268.78 557.893C1265.14 548.361 1260.54 539.12 1255.7 529.942C1251.52 522.012 1247.25 514.091 1243.71 505.974C1238.52 494.048 1229 485.291 1215.26 479.281C1209.32 476.684 1203.1 474.608 1196.58 473.176C1189.92 471.715 1183.2 470.447 1176.5 469.093C1172.11 468.207 1167.72 467.321 1163.38 466.444C1163.21 465.844 1163 465.461 1163.04 465.091C1163.07 464.719 1163.34 464.36 1163.57 463.851C1166.21 463.581 1168.87 463.287 1171.53 463.042C1183.58 461.933 1195.59 460.725 1207.82 461.714C1220.27 462.719 1232.58 464.17 1244.62 466.883C1266.75 471.871 1286.5 480.263 1303.02 493.189C1312.41 500.538 1321.96 507.764 1331.12 515.287C1356.22 535.888 1379.11 557.943 1398.9 581.977C1408.71 593.902 1418.93 605.595 1429.54 617.077C1432.24 620.003 1434.94 622.927 1437.63 625.857C1438.35 626.631 1439.08 627.355 1440.41 627.427V595.934C1439.65 595.729 1438.73 595.675 1438.17 595.288C1437.04 594.497 1436.08 593.537 1435.08 592.63C1426.59 584.957 1418.64 576.941 1411.17 568.629C1398.99 555.075 1386.8 541.522 1374.92 527.798C1371.41 523.74 1368.92 519.113 1365.98 514.74C1365.94 514.682 1366.11 514.536 1366.33 514.189C1367.49 514.533 1368.75 514.804 1369.89 515.26C1388.61 522.733 1404.48 532.914 1416.58 546.656C1422.98 553.932 1430.01 560.809 1437.19 567.595C1438.05 568.409 1438.81 569.367 1440.41 569.287V524.875C1438.67 525.35 1437.11 524.748 1435.51 524.361C1422.45 521.209 1409.34 518.166 1396.34 514.862C1390.42 513.356 1384.65 511.43 1378.91 509.513C1376.29 508.637 1373.76 507.468 1371.44 506.152C1369.85 505.247 1368.47 503.973 1367.38 502.659C1366.11 501.128 1366.48 499.533 1368.16 498.269C1369.12 497.549 1370.29 496.89 1371.52 496.546C1373.73 495.925 1376.03 495.304 1378.34 495.134C1387.56 494.458 1396.8 493.703 1406.05 493.456C1415.82 493.198 1425.61 493.492 1435.38 493.525C1437.06 493.53 1438.74 493.433 1440.41 493.381V487.73C1439.58 487.676 1438.74 487.571 1437.91 487.576C1429.41 487.633 1421.17 486.421 1413.17 484.24C1402.73 481.393 1393.16 477.283 1385.05 471.21C1384.41 470.727 1384.01 470.034 1383.47 469.408C1385.38 468.355 1387.26 468.378 1389.08 468.252C1397.61 467.666 1405.83 468.862 1413.85 471.078C1422.01 473.331 1429.59 476.467 1436.47 480.65C1437.63 481.356 1438.62 482.445 1440.41 482.077V465.927C1438.34 465.934 1437.07 464.734 1435.64 463.847C1430.44 460.633 1425.36 457.291 1420.11 454.134C1413.18 449.971 1405.58 446.897 1397.18 444.977C1377.26 440.417 1358.75 433.395 1341.41 424.356C1330.81 418.825 1320.81 412.651 1311.17 406.107C1291.36 392.664 1270.58 380.256 1248.77 368.958C1240.31 364.578 1231.15 361.669 1221.29 360.065C1207.39 357.803 1193.45 358.175 1179.5 359.612C1169.14 360.68 1158.82 362.052 1148.43 362.955C1134.12 364.2 1119.85 364.064 1105.67 361.569C1077.58 356.63 1050.65 348.868 1023.98 340.475C1019.86 339.18 1016.19 337.249 1013.17 334.634C1007.57 329.8 1005.38 324.115 1006.39 317.326C1007.79 317.606 1008.93 317.763 1010 318.06C1013.82 319.12 1017.58 320.338 1021.43 321.3C1054.25 329.482 1087.06 337.669 1119.91 345.75C1135.21 349.512 1131.39 349.32 1149.7 348.83C1150.04 348.82 1150.38 348.851 1150.71 348.802C1151.64 348.661 1152.56 348.488 1153.62 348.306C1153.42 346.082 1153.17 344.08 1153.07 342.074C1152.86 338.086 1151.43 334.396 1148.89 330.982C1147 328.439 1144.97 325.958 1143.04 323.431C1142.27 322.423 1141.61 321.363 1140.86 320.275C1141.49 320.138 1141.82 319.978 1142.11 320.014C1148.96 320.839 1155.76 321.767 1161.88 324.612C1163.33 325.286 1164.93 325.754 1166.46 326.321C1186.78 333.874 1207.18 341.3 1227.4 349.018C1244.76 355.64 1261.59 363.048 1277.54 371.669C1292.97 380.01 1307.07 389.54 1319.2 400.899C1329.17 410.229 1341.25 417.488 1354.93 423.053C1368.86 428.722 1383.64 432.391 1399.03 434.414C1412.38 436.169 1425.49 438.524 1438 442.747C1438.76 443.006 1439.6 443.13 1440.41 443.317V411.016C1438.71 411.583 1437.07 411.052 1435.46 410.751C1411.66 406.296 1387.69 402.486 1363.53 399.526C1354.03 398.364 1345.29 395.777 1337.1 391.872C1335.65 391.182 1334.19 390.51 1332.74 389.822C1324.47 385.895 1316.64 381.448 1309.02 376.769C1299.24 370.765 1288.95 365.402 1277.99 360.861C1259.44 353.176 1240.93 345.423 1222.4 337.703C1204.16 330.104 1186.07 322.283 1168.89 313.221C1153.38 305.036 1137.06 298.068 1120.05 292.091C1098.26 284.435 1075.75 278.379 1052.97 272.921C1048.45 271.838 1043.93 270.772 1039.39 269.741C1037.23 269.25 1035.32 268.426 1033.7 267.211C1032.2 266.077 1030.26 265.207 1029.49 263.506C1037.76 260.393 1040.48 260.017 1047.23 261.081C1084.12 266.893 1120.72 273.723 1156.91 281.846C1181.56 287.379 1206 293.537 1230.44 299.644C1257.3 306.353 1284.24 312.861 1310.65 320.661C1325.04 324.911 1339.57 328.809 1354.55 331.568C1359.31 332.446 1364.08 333.322 1368.77 334.403C1389.35 339.149 1407.88 346.72 1423.05 359.125C1427.27 362.578 1432.2 365.479 1436.83 368.608C1437.84 369.295 1438.88 370.055 1440.41 369.834V343.995C1438.55 344.151 1437.27 343.159 1435.83 342.504C1429.53 339.649 1423.3 336.675 1416.91 333.948C1400.31 326.866 1382.85 321.684 1364.31 318.834C1357.49 317.785 1351.01 315.863 1344.89 313.207C1340.56 311.325 1336.74 308.974 1333.62 305.855C1325.38 297.611 1314.74 292.172 1302.17 289.038C1291.1 286.279 1279.72 285.503 1268.2 285.597C1261.79 285.649 1255.38 285.763 1248.97 285.814C1240.96 285.876 1233.31 284.723 1225.8 282.321C1199.84 274.026 1172.93 268.637 1145.09 266.331C1140.54 265.953 1136.13 265.241 1131.87 263.855C1125.32 261.721 1118.67 259.773 1112.15 257.579C1097.05 252.495 1082.47 246.609 1069.05 239.037C1056.54 231.979 1045.75 223.591 1037.28 213.323C1029.9 204.378 1020.74 196.687 1010.23 190.019C998.395 182.507 985.351 176.629 971.341 172.177C959.602 168.446 949.176 163.103 939.547 156.681C938.271 155.831 936.971 154.863 936.166 153.731C933.746 150.323 932.878 146.524 931.984 142.427C933.019 142.529 933.649 142.548 934.253 142.657C938.526 143.432 942.781 144.274 947.065 145.002C955.798 146.485 964.492 148.191 973.302 149.297C987.974 151.137 1002.53 153.309 1016.78 156.682C1041.95 162.639 1065.06 171.731 1085.54 184.985C1090.36 188.105 1095.62 190.895 1101.06 193.289C1111.09 197.707 1121.34 201.8 1131.61 205.867C1137.78 208.313 1144.43 209.008 1151.31 208.596C1157.63 208.216 1163.52 206.733 1169.18 204.516C1177.34 201.311 1185.49 198.069 1193.7 194.93C1203.28 191.266 1213.02 187.895 1223.15 185.292C1237.11 181.706 1251.33 180.168 1266.03 181.353C1275.78 182.138 1285.57 182.031 1295.22 180.222C1300.3 179.268 1305.46 178.559 1310.56 177.662C1328.68 174.474 1346.59 170.683 1364.04 165.611C1391.89 157.517 1417.86 146.976 1438.19 129.133C1438.68 128.704 1439.66 128.631 1440.41 128.392V70.2524C1436.43 71.6782 1432.4 73.0366 1428.47 74.5456C1422.54 76.8192 1416.6 79.0962 1410.25 80.5009C1387.46 85.5436 1364.44 86.4024 1341.19 82.7047C1324.7 80.0812 1309.19 75.3085 1294.28 69.2102C1283.91 64.9692 1274.18 59.8904 1264.54 54.6896C1256.86 50.5461 1249.22 46.3597 1241.4 42.392C1227.38 35.281 1212.52 29.647 1196.31 26.4473C1195.36 26.2597 1194.47 25.8678 1193.28 25.4825C1194.02 24.2864 1194.66 23.2416 1195.3 22.1902C1202.31 22.4392 1209.04 22.663 1215.76 22.9212C1224.12 23.2433 1232.04 25.0013 1239.63 27.7376C1244.23 29.398 1248.87 31.0231 1253.37 32.8484C1267.96 38.7616 1282.05 45.3352 1295.55 52.7381C1302.77 56.694 1310.14 60.5103 1317.72 63.9993C1331.02 70.122 1345.44 73.786 1360.72 74.983C1375.28 76.1219 1389.73 75.3464 1403.8 72.0685C1414.14 69.6611 1424.32 66.8054 1434.59 64.1844C1436.49 63.6974 1438.47 63.3803 1440.41 62.9849Z" fill="white" fill-opacity="0.05"/>
<path d="M1440.41 138.083C1439.01 138.8 1437.49 139.4 1436.23 140.254C1417.94 152.711 1398 163.226 1376.81 172.261C1365.92 176.905 1354.57 180.612 1342.66 183.277C1299.5 192.936 1256.36 202.636 1213.21 212.331C1204.61 214.263 1196 216.16 1187.45 218.219C1171.94 221.951 1156.25 222.197 1140.4 220.074C1128.56 218.49 1117.12 215.681 1105.64 212.983C1102.41 212.223 1099.19 211.424 1095.94 210.701C1082.84 207.778 1070.59 203.33 1059.38 197.209C1052.01 193.186 1044.95 188.808 1037.81 184.522C1034.17 182.339 1030.7 179.978 1027.11 177.749C1011.81 168.275 994.703 161.883 975.783 158.585C975.292 158.499 974.788 158.446 974.287 158.411C974.136 158.401 973.974 158.5 973.684 158.592C973.913 158.908 974.035 159.329 974.362 159.495C997.319 171.156 1017.89 185.37 1039.67 198.298C1052.66 206.013 1065.85 213.488 1079.86 220.01C1093.43 226.332 1107.48 231.84 1122.33 235.993C1154.43 244.972 1186.47 244.568 1217.61 233.819C1257.17 220.16 1297.99 209.62 1339.38 200.292C1351.38 197.587 1363.42 195.006 1375.4 192.22C1388.38 189.197 1400.83 185.082 1412.63 179.783C1421.18 175.944 1429.18 171.477 1436.57 166.317C1437.67 165.55 1438.58 164.4 1440.41 164.73V138.083Z" fill="white" fill-opacity="0.05"/>
<path d="M1440.41 207.528C1438.35 207.058 1436.86 208.159 1435.26 208.8C1425.3 212.771 1415.15 216.375 1404.75 219.533C1383.88 225.874 1362.37 230.196 1340.19 232.327C1335 232.825 1329.78 233.067 1324.57 233.378C1308.53 234.334 1292.83 236.54 1277.85 241.438C1266.03 245.301 1255.43 250.689 1245.96 257.507C1244.87 258.291 1243.91 259.187 1242.52 260.336C1244 260.824 1244.99 261.221 1246.04 261.485C1263.86 265.988 1281.58 270.734 1299.63 274.654C1310.54 277.022 1321.11 280.192 1331.16 284.368C1340.95 288.434 1349.91 293.41 1357.41 299.922C1360.01 302.184 1363.18 303.589 1366.73 304.553C1374.07 306.545 1381.52 308.208 1389.16 309.316C1393.8 309.988 1398.41 310.777 1403.02 311.577C1406.68 312.212 1410.06 313.409 1413.18 315.052C1420.78 319.048 1428.36 323.066 1435.96 327.054C1437.32 327.773 1438.47 328.936 1440.41 328.653V305.235C1438.76 304.585 1437.04 304.036 1435.49 303.269C1426.62 298.886 1417.79 294.449 1408.94 290.033C1387.55 279.349 1366.15 268.671 1344.76 257.97C1343.38 257.279 1341.7 256.841 1340.71 255.352C1342.31 255.001 1343.72 254.677 1345.14 254.38C1352.95 252.748 1360.83 251.308 1368.55 249.458C1391.43 243.981 1412.96 236.21 1432.52 225.161C1434.31 224.153 1436.13 223.176 1438.03 222.316C1438.67 222.023 1439.61 222.135 1440.41 222.063V207.528Z" fill="white" fill-opacity="0.05"/>
<path d="M1440.41 637.118C1439.48 636.895 1438.37 636.855 1437.63 636.423C1430.29 632.142 1422.91 627.887 1415.72 623.44C1410.11 619.966 1405.38 615.722 1400.97 611.302C1395.51 605.835 1390.17 600.288 1384.9 594.705C1378.7 588.147 1372.2 581.799 1365.05 575.89C1350.89 564.184 1336.72 552.491 1322.46 540.857C1309.38 530.183 1296.1 519.669 1282.02 509.828C1280.78 508.961 1279.49 508.135 1277.43 506.751C1278.05 509.367 1278.45 511.175 1278.93 512.97C1283.47 530.064 1289.1 546.938 1295.14 563.728C1302.57 584.389 1310.09 605.03 1317.44 625.707C1319.83 632.426 1321.83 639.233 1324 646H1351.33C1351.17 644.94 1351.09 643.865 1350.82 642.824C1348.31 633.219 1344.75 623.848 1340.77 614.577C1338.47 609.223 1336.78 603.774 1335.96 598.151C1335.1 592.287 1334.18 586.428 1333.33 580.564C1333.28 580.208 1333.53 579.824 1333.7 579.276C1335.81 579.018 1337.88 578.5 1340.04 579.424C1340.63 582.129 1341.31 584.759 1341.75 587.413C1342.93 594.449 1345.4 601.355 1345.11 608.54C1345.03 610.495 1346.15 611.781 1348.35 612.683C1355.78 615.723 1359.76 620.781 1361.49 627.163C1362.41 630.57 1363.6 633.931 1364.56 637.334C1365.37 640.197 1366.72 642.989 1366.52 646H1388.79C1388.78 645.465 1388.67 644.916 1388.79 644.397C1390.27 637.623 1394.31 635.891 1400.26 635.56C1404.63 635.317 1409.01 635.284 1413.26 636.294C1414.69 636.633 1416.17 637.047 1417.38 637.712C1421.94 640.215 1426.48 642.742 1430.29 646H1440.41V637.118Z" fill="white" fill-opacity="0.05"/>
<path d="M0.000977456 538.602V559.597C2.52629 560.591 5.07059 561.552 7.56849 562.586C9.9989 563.59 12.8806 563.883 15.329 565.441C11.0238 567.849 6.78822 569.689 2.36708 571.264C1.64059 571.523 0.79284 571.566 0.000977456 571.709L0.000977456 589.474C4.06468 590.67 8.13049 591.866 12.172 593.056C11.1862 595.688 11.2241 595.816 9.34306 596.158C6.25785 596.718 3.11782 597.095 0.000977456 597.55V618.545C0.603046 618.363 1.27365 618.262 1.79875 617.987C8.3013 614.584 14.2566 610.646 19.3821 605.98C22.0361 603.563 24.3241 600.894 26.8769 598.404C28.0293 597.28 29.2018 595.949 30.7518 595.351C34.0911 594.064 37.7489 593.413 41.5216 593.638C43.9625 593.784 46.2654 594.474 47.5465 596.192C50.4999 600.151 52.8755 604.371 52.3272 609.1C50.7656 622.549 44.3179 634.214 31.9148 643.618C30.969 644.333 30.2046 645.202 29.3558 646H81.992C82.0869 632.13 83.3701 618.354 86.8286 604.732C88.2826 599.006 88.5209 593.268 86.6135 587.55C84.2273 580.401 79.0344 574.741 72.0605 570.025C66.4953 566.263 60.3217 563.239 53.7011 560.85C36.336 554.585 19.6605 547.288 3.16948 539.702C2.17728 539.246 1.05961 538.965 0.000977456 538.602Z" fill="white" fill-opacity="0.05"/>
<path d="M8.94177e-06 442.51C20.037 448.469 40.1362 454.3 60.0782 460.457C66.9656 462.583 73.5715 465.351 80.1131 468.117C106.314 479.192 132.421 490.408 158.603 501.511C166.337 504.791 174.25 507.798 181.991 511.065C187.644 513.451 193.297 515.874 198.688 518.61C205.9 522.271 211.859 526.977 215.557 533.277C215.681 533.487 216.022 533.617 216.524 533.966C216.879 533.348 217.364 532.823 217.48 532.251C218.643 526.486 217.615 521.015 213.967 515.892C211.443 512.349 208.302 509.189 204.486 506.515C201.201 504.212 197.78 502.005 194.205 500.002C171.161 487.097 147.349 475.134 123.404 463.336C110.503 456.978 97.5541 450.68 84.6956 444.266C72.1481 438.007 58.4418 434.65 43.795 433.546C30.3765 432.534 16.9539 431.554 3.53229 430.567C2.35768 430.481 1.17673 430.453 8.94177e-06 430.398V442.51Z" fill="white" fill-opacity="0.05"/>
<path d="M1440.41 387.6C1430.32 384.824 1420.8 381.134 1411.99 376.305C1406.54 373.318 1401.49 369.932 1397.5 365.712C1393.42 361.392 1388.21 358.289 1382.18 356.075C1376.68 354.052 1371.07 352.171 1365.36 350.562C1345.3 344.913 1324.77 340.63 1303.79 337.833C1298.98 337.192 1294.08 336.96 1289.22 336.577C1288.41 336.513 1287.57 336.635 1286.67 336.675C1286.67 338.108 1288.06 338.562 1289 339.204C1304.49 349.799 1319.98 360.387 1335.52 370.932C1342.07 375.376 1348.73 379.722 1355.35 384.098C1356.78 385.041 1358.26 385.935 1359.73 386.829C1363.55 389.141 1367.79 390.69 1372.51 391.451C1382.42 393.05 1392.3 394.755 1402.21 396.368C1413.43 398.197 1424.67 399.987 1435.91 401.759C1437.38 401.991 1438.91 402.014 1440.41 402.135V387.6Z" fill="white" fill-opacity="0.05"/>
<path d="M285.45 7.94623e-05C285.714 1.3989 287.308 1.82873 288.461 2.5252C293.312 5.45406 297.926 8.58901 302.087 12.1336C309.715 18.6314 315.374 26.015 317.788 34.7999C319.881 42.4216 319.362 50.0263 317.283 57.6042C315.257 64.9937 312.025 72.0585 308.133 78.9281C302.58 88.7266 296.82 98.4494 291.267 108.248C288.214 113.635 285.527 119.156 282.443 124.532C280.484 127.948 279.722 131.419 280.31 135.119C280.477 136.172 280.544 137.236 280.657 138.294C281.273 138.522 281.692 138.78 282.143 138.822C282.947 138.898 283.771 138.843 284.748 138.843C287.746 133 291.064 127.402 292.44 121.281C294.689 111.277 299.92 102.363 307.496 94.2672C311.542 89.9437 316.087 85.9752 321.042 82.3078C329.102 76.3424 336.18 69.6746 342.964 62.7991C346.331 59.3849 348.844 55.6048 350.215 51.3663C351.825 46.3867 351.34 41.498 349.281 36.6799C348.685 35.2844 348.033 33.889 347.21 32.5709C341.114 22.7968 336.446 12.5727 332.089 2.24763C331.768 1.48723 331.366 0.748699 331.001 7.94623e-05L285.45 7.94623e-05Z" fill="white" fill-opacity="0.05"/>
<path d="M9.93062e-05 226.908C8.92042 230.679 18.0348 234.192 26.7157 238.287C38.9237 244.045 51.5207 249.138 64.4194 253.808C75.3093 257.75 86.2362 261.645 96.9342 265.902C104.005 268.715 110.856 271.934 117.522 275.324C126.968 280.127 135.266 286.011 141.796 293.362C142.084 293.688 142.451 293.973 142.814 294.249C142.916 294.326 143.136 294.305 143.663 294.379C143.967 293.427 144.452 292.462 144.564 291.471C145.063 287.051 143.691 282.939 141.096 279.06C139.018 275.95 136.293 273.224 133.221 270.708C129.32 267.515 124.902 264.828 120.371 262.245C104.321 253.097 87.7967 244.519 71.1908 236.036C53.735 227.118 36.2908 218.188 18.815 209.298C12.9778 206.329 6.86642 203.812 9.93062e-05 202.683V226.908Z" fill="white" fill-opacity="0.05"/>
<path d="M1391.89 7.45844C1391.51 7.26413 1391.25 7.13376 1391 7.00338C1391.32 6.83767 1391.62 6.59038 1391.97 6.5357C1392.19 6.50122 1392.49 6.75524 1392.74 6.87973C1392.45 7.07992 1392.15 7.28012 1391.89 7.45844ZM1337.16 6.29106e-06C1347.62 7.37769 1357.92 14.9362 1369.36 21.3424C1380.5 27.5778 1393.19 30.5428 1406.66 31.5236C1416.77 32.2588 1426.84 31.8878 1436.89 30.8894C1438.05 30.7741 1439.24 30.7506 1440.41 30.685V6.29106e-06L1380.69 6.29106e-06C1382.52 1.37528 1384.36 2.74803 1386.18 4.13171C1386.29 4.2133 1386.34 4.38574 1386.33 4.50686C1386.31 4.59266 1386.14 4.66331 1385.8 4.91398C1381.85 3.73385 1378.11 2.05576 1374.62 6.29106e-06L1337.16 6.29106e-06Z" fill="white" fill-opacity="0.05"/>
<path d="M1440.41 243.058C1439.3 243.308 1438.1 243.418 1437.09 243.831C1428.86 247.208 1420.81 250.83 1413.17 255.009C1411.37 255.993 1409.62 257.053 1408.01 258.229C1406.54 259.311 1405.14 260.505 1403.98 261.807C1400.23 266.032 1400.61 270.034 1405.04 273.84C1408.3 276.644 1412.33 278.638 1416.7 280.062C1423.54 282.292 1430.51 284.253 1437.45 286.281C1438.37 286.55 1439.42 286.542 1440.41 286.662V243.058Z" fill="white" fill-opacity="0.05"/>
<path d="M1440.41 503.072C1437.56 503.002 1434.7 502.949 1431.85 502.859C1421.93 502.546 1412.02 502.214 1402.11 501.912C1401.65 501.898 1401.18 502.096 1400.68 502.202C1402.95 504.541 1403.36 504.851 1406.93 505.717C1414.49 507.547 1422.08 509.307 1429.66 511.082C1431.92 511.611 1434.17 512.169 1436.47 512.569C1437.74 512.79 1439.09 512.708 1440.41 512.762V503.072Z" fill="white" fill-opacity="0.05"/>
<path d="M1099.29 0.000235974C1100.02 0.276973 1100.73 0.719415 1101.5 0.804371C1106.82 1.38644 1112.13 2.09553 1117.48 2.38656C1129.58 3.04434 1141.64 2.15357 1153.68 1.29896C1156.19 1.12148 1158.71 0.993628 1161.21 0.748014C1162.85 0.586514 1164.47 0.255103 1166.09 0.000235974L1099.29 0.000235974Z" fill="white" fill-opacity="0.05"/>
<path d="M1235.34 123.247C1234.18 122.613 1233.82 122.281 1233.38 122.196C1225.2 120.608 1217.07 118.813 1208.8 117.557C1202.03 116.528 1195.1 116.154 1188.25 115.478C1148.4 111.545 1108.88 106.303 1070.4 96.8586C1064.76 95.4757 1059.12 94.082 1053.62 92.4047C1043.01 89.173 1032.03 87.2123 1020.92 85.557C1003.35 82.9418 985.924 79.8498 968.735 75.9511C964.533 74.9981 960.393 73.8028 956.346 72.4805C947.668 69.6467 939.894 65.69 933.417 59.8297C932.245 60.3016 931.154 60.7398 929.797 61.2857C931.094 64.0236 932.082 66.5925 933.82 68.8871C934.76 70.1295 935.977 71.3281 937.38 72.2425C942.864 75.8131 948.397 79.3426 954.057 82.7341C960.29 86.4696 967.165 89.258 974.513 91.4063C1004.73 100.242 1035.32 108.218 1065.84 116.337C1077.51 119.44 1089.19 122.522 1100.78 125.784C1112.52 129.085 1124.62 130.71 1137 130.666C1146.43 130.632 1155.86 130.115 1165.28 129.691C1171 129.434 1176.72 129.058 1182.41 128.539C1195.3 127.367 1208.18 126.089 1221.05 124.82C1225.56 124.376 1230.05 123.832 1235.34 123.247Z" fill="white" fill-opacity="0.05"/>
<path d="M311.57 477.929C312.87 479.792 313.696 481.087 314.646 482.321C320.329 489.695 327.318 496.233 334.974 502.332C344.298 509.756 354.455 516.413 364.83 522.865C371.743 527.163 378.755 531.36 385.625 535.702C392.493 540.043 399.292 544.456 406.006 548.95C408.02 550.296 409.814 550.314 411.985 549.416C412.423 546.297 411.156 543.454 410.637 540.561C409.681 535.241 408.362 529.964 407.329 524.653C406.996 522.938 407.151 521.166 406.962 519.429C406.7 517.026 406.558 514.594 405.947 512.243C404.68 507.374 401.126 503.743 395.769 501.219C391.653 499.278 387.195 497.959 382.502 497.496C376.451 496.897 371.173 495.074 366.314 492.245C364.139 490.978 361.833 489.853 359.579 488.671C351.445 484.41 342.643 481.496 332.999 480.27C327.511 479.573 322.028 478.843 316.535 478.174C315.221 478.014 313.873 478.036 311.57 477.929Z" fill="white" fill-opacity="0.05"/>
<path d="M362.836 610.365C361.397 608.775 360.298 607.448 359.058 606.211C355.226 602.389 352.362 598.17 350.403 593.53C347.769 587.291 345.035 581.08 342.318 574.864C341.432 572.834 340.411 570.841 339.554 568.804C336.634 561.875 331.461 556.134 324.833 551.205C320.15 547.722 315.323 544.359 310.486 541.014C306.029 537.932 301.475 534.938 296.951 531.917C296.197 531.414 295.382 530.97 294.735 530.583C293.316 530.8 293.472 531.589 293.364 532.191C292.432 537.445 293.667 542.407 297.113 546.907C299.122 549.53 301.54 551.973 303.986 554.359C305.902 556.227 308.146 557.881 310.237 559.633C313.036 561.979 315.568 564.489 317.541 567.331C319.112 569.594 320.217 571.973 320.163 574.609C320.006 582.34 323.916 588.723 330.599 594.076C333.801 596.642 337.242 599.045 340.806 601.286C345.835 604.446 351.067 607.402 356.237 610.416C358.552 611.766 358.58 611.735 362.836 610.365Z" fill="white" fill-opacity="0.05"/>
<path d="M193.075 271.669C191.436 272.249 189.933 272.781 188.109 273.426C188.564 274.146 188.793 274.772 189.275 275.23C198.593 284.09 207.941 292.932 217.285 301.775C218.264 302.7 219.298 303.587 220.251 304.528C222.184 306.434 223.622 308.527 224.214 310.977C225.638 316.882 229.509 321.716 234.938 325.736C238.018 328.017 241.343 330.114 244.76 332.068C250.362 335.273 256.268 338.115 262.853 341.026C262.676 340.143 262.708 339.65 262.476 339.255C258.113 331.83 253.901 324.343 249.267 317.025C245.928 311.755 242.149 306.652 238.33 301.587C234.017 295.868 228.263 291.138 221.468 287.267C215.158 283.673 208.715 280.228 202.326 276.721C199.284 275.051 196.232 273.393 193.075 271.669Z" fill="white" fill-opacity="0.05"/>
<path d="M777.794 16.1163C778.212 16.5242 778.587 16.9675 779.055 17.3359C788.172 24.5101 797.227 31.7372 806.458 38.8179C810.947 42.2616 815.745 45.4521 820.451 48.7123C827.491 53.5901 835.284 57.5662 843.698 60.75C853.892 64.6066 864.133 68.3867 874.358 72.1895C874.644 72.2955 875.001 72.2804 875.704 72.3712C875.57 71.6672 875.664 70.9573 875.299 70.4627C874.019 68.7316 872.82 66.9046 871.155 65.425C867.562 62.2287 863.932 59.0138 859.907 56.1775C839.721 41.9579 817.476 30.1348 793.453 20.4473C789.855 18.9955 786.066 17.8373 782.335 16.6033C780.972 16.1525 779.522 15.874 778.111 15.5174C778.005 15.7167 777.9 15.9169 777.794 16.1163Z" fill="white" fill-opacity="0.05"/>
</svg>
